<svg xmlns="http://www.w3.org/2000/svg" width="11.142" height="18.649" viewBox="0 0 11.142 18.649">
  <g id="noun-battery-indicator-1601217" transform="translate(-191.518 -14.559)">
    <path id="Path_103006" data-name="Path 103006" d="M201.069,16.268h-1.887V14.893a.331.331,0,0,0-.334-.334H195.33a.331.331,0,0,0-.334.334v1.376H193.11a1.585,1.585,0,0,0-1.592,1.592V31.616a1.585,1.585,0,0,0,1.592,1.592h7.959a1.585,1.585,0,0,0,1.592-1.592V17.86a1.585,1.585,0,0,0-1.592-1.592Zm.1,15.348a.093.093,0,0,1-.1.1H193.09a.093.093,0,0,1-.1-.1V17.86a.093.093,0,0,1,.1-.1h7.959a.093.093,0,0,1,.1.1V31.616Z" transform="translate(0 0)" fill="#fff"/>
    <path id="Path_103007" data-name="Path 103007" d="M265.471,410.48h-6.013a.176.176,0,0,0-.177.177v2.024a.176.176,0,0,0,.177.177h6.033a.176.176,0,0,0,.177-.177v-2.024a.209.209,0,0,0-.2-.177Z" transform="translate(-65.385 -382.028)" fill="#fff"/>
    <path id="Path_103008" data-name="Path 103008" d="M265.471,317.52h-6.013a.176.176,0,0,0-.177.177v2.024a.176.176,0,0,0,.177.177h6.033a.176.176,0,0,0,.177-.177V317.7a.209.209,0,0,0-.2-.177Z" transform="translate(-65.385 -292.33)" fill="#fff"/>
    <path id="Path_103009" data-name="Path 103009" d="M265.471,224.56h-6.013a.176.176,0,0,0-.177.177v2.024a.176.176,0,0,0,.177.177h6.033a.176.176,0,0,0,.177-.177v-2.024a.209.209,0,0,0-.2-.177Z" transform="translate(-65.385 -202.632)" fill="#fff"/>
  </g>
</svg>
