<svg xmlns="http://www.w3.org/2000/svg" width="19.502" height="20.64" viewBox="0 0 19.502 20.64">
  <g id="noun-mileage-4256826" transform="translate(-107.334 -8.935)">
    <path id="Path_103011" data-name="Path 103011" d="M117.833,38.082a.75.75,0,0,0-.75-.75h-9a.75.75,0,0,0-.75.75v18a.75.75,0,0,0,.75.75h9a.75.75,0,0,0,.75-.75Zm-1.125,1.125a.75.75,0,0,0-.75-.75h-6.749a.75.75,0,0,0-.75.75V54.956a.75.75,0,0,0,.75.75h6.749a.75.75,0,0,0,.75-.75Zm-7.125,1.125a.75.75,0,0,1,.75-.75h4.5a.75.75,0,0,1,.75.75v3.75a.75.75,0,0,1-.75.75h-4.5a.75.75,0,0,1-.75-.75Zm1.125,1.125a.75.75,0,0,1,.75-.75h2.25a.75.75,0,0,1,.75.75v1.5a.75.75,0,0,1-.75.75h-2.25a.75.75,0,0,1-.75-.75Zm-1.125,5.062a.563.563,0,0,1,.562-.562h4.875a.562.562,0,0,1,0,1.125h-4.875A.563.563,0,0,1,109.584,46.519Z" transform="translate(0 -27.256)" fill="#fff" fill-rule="evenodd"/>
    <path id="Path_103012" data-name="Path 103012" d="M345.164,16.075a7.5,7.5,0,0,1,5.144-7.122.369.369,0,0,1,.481.36V9.7h0v2.622a0,0,0,0,0,0,0l0,0a6.751,6.751,0,0,1-4.01,6.169.807.807,0,0,0-.493.727V23.2a3.187,3.187,0,0,1-5.439,2.256.667.667,0,0,1-.185-.476V23.387a.187.187,0,0,1,.187-.188.2.2,0,0,1,.2.187,2.062,2.062,0,0,0,4.116-.187V16.075Zm4.5-3.749h0a0,0,0,0,1,0,0v-.7a.61.61,0,0,0-.978-.529,6.363,6.363,0,0,0-2.4,4.981h0V16.1q0,.172.01.341a.005.005,0,0,1-.005.005.005.005,0,0,0-.005.005v.4a.376.376,0,0,0,.558.344,5.623,5.623,0,0,0,2.82-4.877Z" transform="translate(-223.956)" fill="#fff" fill-rule="evenodd"/>
  </g>
</svg>
