<svg xmlns="http://www.w3.org/2000/svg" width="18.12" height="15.995" viewBox="0 0 18.12 15.995">
  <g id="noun-performance-5324366" transform="translate(-127.791 -83.844)">
    <path id="Path_103018" data-name="Path 103018" d="M237.9,452.829a.485.485,0,0,0,.485.485h8.171a.485.485,0,1,0,0-.971h-8.17a.486.486,0,0,0-.485.485Z" transform="translate(-105.62 -353.475)" fill="#fff"/>
    <path id="Path_103019" data-name="Path 103019" d="M136.851,83.844a9.03,9.03,0,0,0-6.364,2.619.273.273,0,0,0-.078.078,9.051,9.051,0,0,0-.391,12.313.486.486,0,0,0,.68.051l1.893-1.6a.485.485,0,0,0,.05-.691,5.609,5.609,0,0,1,7.751-8.056.485.485,0,0,0,.613-.752,6.591,6.591,0,0,0-3.67-1.457V84.83a8.089,8.089,0,0,1,5.924,13.01l-1.156-.975a6.593,6.593,0,0,0,1.054-5.841.485.485,0,0,0-.93.277,5.62,5.62,0,0,1-1.166,5.306.486.486,0,0,0,.051.692l1.9,1.6a.485.485,0,0,0,.679-.053,9.06,9.06,0,0,0-6.839-15Zm-4.293,4.081-1.07-1.07a8.055,8.055,0,0,1,4.877-2.024v1.514a6.551,6.551,0,0,0-3.808,1.58Zm-.958,8.944-1.154.977a8.08,8.08,0,0,1-1.665-4.456h1.51a6.57,6.57,0,0,0,1.309,3.479Zm-1.309-4.45h-1.514a8.056,8.056,0,0,1,2.024-4.877l1.07,1.07a6.551,6.551,0,0,0-1.58,3.808Z" transform="translate(0 0)" fill="#fff"/>
    <path id="Path_103020" data-name="Path 103020" d="M316.092,201.055a.485.485,0,0,0-.623-.072c-.975.65-5.86,3.912-6.319,4.37a1.631,1.631,0,1,0,2.306,2.306c.457-.457,4.238-5.415,4.668-5.979a.485.485,0,0,0-.032-.626Zm-5.322,5.919a.66.66,0,0,1-.934-.933c.212-.209,1.939-1.4,3.721-2.6-1.313,1.706-2.577,3.327-2.788,3.538Z" transform="translate(-173.508 -112.285)" fill="#fff"/>
    <path id="Path_103021" data-name="Path 103021" d="M297.14,407.723a.485.485,0,0,0,.485.485h3.34a.485.485,0,1,0,0-.971h-3.34A.485.485,0,0,0,297.14,407.723Z" transform="translate(-162.444 -310.208)" fill="#fff"/>
  </g>
</svg>
