<svg xmlns="http://www.w3.org/2000/svg" width="27.096" height="14.824" viewBox="0 0 27.096 14.824">
  <g id="noun-pick-up-1657443" transform="translate(0 0)">
    <path id="Path_103803" data-name="Path 103803" d="M185.415,334.323A1.185,1.185,0,0,1,187.09,336,1.185,1.185,0,0,1,185.415,334.323Z" transform="translate(-180.864 -323.487)" fill="#fff"/>
    <path id="Path_103804" data-name="Path 103804" d="M116.555,159.088a1.912,1.912,0,0,0,0,3.823A1.912,1.912,0,0,0,116.555,159.088Zm15.559-.111a1.91,1.91,0,0,0,0,3.82A1.91,1.91,0,0,0,132.114,158.977Zm-9.9-9.651a.63.63,0,0,1,.631.631v6.2h14.78a.63.63,0,0,1,.631.631v4.1a.63.63,0,0,1-.631.631h-2.417a3.162,3.162,0,0,1-6.193,0H119.67a3.161,3.161,0,0,1-6.234,0c-1.068,0-2.273.228-2.273-.631v-5.465a.63.63,0,0,1,.191-.453l4.935-5.411a.63.63,0,0,1,.49-.232Zm-2.592,10.93h9.393a3.162,3.162,0,0,1,6.193,0H137v-2.836h-14.78a.633.633,0,0,1-.631-.631v-6.2h-4.532l-4.629,5.079v4.592h1.054a3.164,3.164,0,0,1,6.146,0Z" transform="translate(-111.164 -149.326)" fill="#fff"/>
    <path id="Path_103805" data-name="Path 103805" d="M459.758,332.365a1.183,1.183,0,0,1,1.675,1.672A1.183,1.183,0,0,1,459.758,332.365Z" transform="translate(-439.644 -321.64)" fill="#fff"/>
  </g>
</svg>
