<svg xmlns="http://www.w3.org/2000/svg" xmlns:xlink="http://www.w3.org/1999/xlink" width="82.529" height="79.638" viewBox="0 0 82.529 79.638">
  <defs>
    <clipPath id="clip-path">
      <rect id="Rectangle_8276" data-name="Rectangle 8276" width="48.517" height="48.532" fill="#39ab39"/>
    </clipPath>
    <clipPath id="clip-path-2">
      <rect id="Rectangle_8275" data-name="Rectangle 8275" width="38.218" height="38.148" fill="#39ab39"/>
    </clipPath>
  </defs>
  <g id="Group_46394" data-name="Group 46394" transform="translate(-833.836 -3431.761)">
    <g id="Group_45217" data-name="Group 45217" transform="translate(719.989 40.137)">
      <g id="Group_45229" data-name="Group 45229">
        <path id="Path_103810" data-name="Path 103810" d="M-12630.707,8432.126s1.322-13.242,11.074-15.048,14.688,1.2,14.688,1.2a58.2,58.2,0,0,0-4.895,8.941c-1.3,3.52-4.91,7.224-7.779,8.242s-9.076-1.019-9.076-1.019,7.594-8.335,9.076-9.076-7.871,3.612-11.3,7.409S-12630.707,8432.126-12630.707,8432.126Z" transform="translate(12762.852 -5024.877)" fill="#4bb643"/>
        <path id="Path_103811" data-name="Path 103811" d="M-12615.013,8426.257s-.826-8.268-6.915-9.4-9.17.751-9.17.751a36.35,36.35,0,0,1,3.056,5.584,9.664,9.664,0,0,0,4.857,5.146c1.792.637,5.666-.636,5.666-.636s-4.74-5.205-5.666-5.666,4.914,2.255,7.054,4.625S-12615.013,8426.257-12615.013,8426.257Z" transform="translate(12744.944 -5019.949)" fill="#4bb643"/>
        <g id="Path_103814" data-name="Path 103814" transform="translate(120.366 3396.556) rotate(-1)" fill="none" stroke-dasharray="232 1700">
          <path d="M37.359,0A37.359,37.359,0,1,1,0,37.359,37.359,37.359,0,0,1,37.359,0Z" stroke="none"/>
          <path d="M 37.35871505737305 7.62939453125e-06 C 37.47989654541016 7.62939453125e-06 37.60137176513672 0.00058746337890625 37.72230911254883 0.001739501953125 C 38.02386856079102 0.00460052490234375 38.32325744628906 0.01102447509765625 38.62306594848633 0.02099609375 C 38.93099594116211 0.0312347412109375 39.2380485534668 0.0452117919921875 39.54404830932617 0.06285858154296875 C 39.73397445678711 0.073822021484375 39.92531585693359 0.08631134033203125 40.11447143554688 0.10009765625 C 42.77935028076172 0.2943954467773438 45.36663818359375 0.7682266235351562 47.84716033935547 1.492401123046875 C 47.85751342773438 1.49542236328125 47.86614990234375 1.497947692871094 47.87650299072266 1.500984191894531 C 47.88656997680664 1.503929138183594 47.89636993408203 1.506805419921875 47.90643310546875 1.509757995605469 C 63.40242004394531 6.062294006347656 74.71742248535156 20.38942337036133 74.71742248535156 37.35871505737305 C 74.71742248535156 37.47992324829102 74.71684265136719 37.60137176513672 74.71569061279297 37.72230911254883 C 74.71282958984375 38.02386856079102 74.70640563964844 38.32325744628906 74.69643402099609 38.62306594848633 C 74.68619537353516 38.93099594116211 74.67221832275391 39.2380485534668 74.65457153320312 39.54404830932617 C 74.64360809326172 39.73397445678711 74.63111877441406 39.92531585693359 74.61733245849609 40.11447143554688 C 74.42303466796875 42.77935028076172 73.94920349121094 45.36663818359375 73.22502899169922 47.84716033935547 C 73.22200775146484 47.85751342773438 73.219482421875 47.86614990234375 73.21644592285156 47.87650299072266 C 73.2135009765625 47.88656997680664 73.21062469482422 47.89636993408203 73.20767211914062 47.90643310546875 C 69.637939453125 60.05712890625 60.05712890625 69.637939453125 47.90643310546875 73.20767211914062 C 47.89636993408203 73.21062469482422 47.88656997680664 73.2135009765625 47.87650299072266 73.21644592285156 C 47.86614990234375 73.219482421875 47.85751342773438 73.22200775146484 47.84716033935547 73.22502899169922 C 45.36663818359375 73.94920349121094 42.77935028076172 74.42303466796875 40.11447143554688 74.61733245849609 C 39.92531585693359 74.63111877441406 39.73397445678711 74.64360809326172 39.54404830932617 74.65457153320312 C 39.2380485534668 74.67221832275391 38.93099594116211 74.68619537353516 38.62306594848633 74.69643402099609 C 38.32325744628906 74.70640563964844 38.02386856079102 74.71282958984375 37.72230911254883 74.71569061279297 C 37.60137176513672 74.71684265136719 37.47992324829102 74.71742248535156 37.35871505737305 74.71742248535156 C 37.35871505737305 74.71742248535156 37.35871505737305 74.71742248535156 37.35871505737305 74.71742248535156 C 20.38942337036133 74.71742248535156 6.062294006347656 63.40242004394531 1.509757995605469 47.90643310546875 C 1.506805419921875 47.89636993408203 1.503929138183594 47.88656997680664 1.500984191894531 47.87650299072266 C 1.497947692871094 47.86614990234375 1.49542236328125 47.85751342773438 1.492401123046875 47.84716033935547 C 0.7682266235351562 45.36663818359375 0.2943954467773438 42.77935028076172 0.10009765625 40.11447143554688 C 0.08631134033203125 39.92531585693359 0.073822021484375 39.73397445678711 0.06285858154296875 39.54404830932617 C 0.0452117919921875 39.2380485534668 0.0312347412109375 38.93099594116211 0.02099609375 38.62306594848633 C 0.01102447509765625 38.32325744628906 0.00460052490234375 38.02386856079102 0.001739501953125 37.72230911254883 C 0.00058746337890625 37.60137176513672 7.62939453125e-06 37.47992324829102 7.62939453125e-06 37.35871505737305 C 7.62939453125e-06 37.35367965698242 7.62939453125e-06 37.34897994995117 7.62939453125e-06 37.34394454956055 C 7.62939453125e-06 37.34214019775391 7.62939453125e-06 37.34061050415039 7.62939453125e-06 37.33880615234375 C 1.52587890625e-05 37.33502578735352 1.52587890625e-05 37.33296585083008 1.52587890625e-05 37.32918930053711 C 1.52587890625e-05 37.3267822265625 2.288818359375e-05 37.32528305053711 2.288818359375e-05 37.3228759765625 C 2.288818359375e-05 37.31909942626953 2.288818359375e-05 37.31822204589844 3.0517578125e-05 37.31444549560547 C 3.0517578125e-05 37.31264114379883 3.814697265625e-05 37.3094367980957 3.814697265625e-05 37.30763244628906 C 4.57763671875e-05 37.30511474609375 4.57763671875e-05 37.30224609375 5.340576171875e-05 37.29972839355469 C 5.340576171875e-05 37.29732513427734 6.103515625e-05 37.29475784301758 6.103515625e-05 37.29235458374023 C 6.866455078125e-05 37.28983688354492 6.866455078125e-05 37.28752517700195 7.62939453125e-05 37.28500747680664 C 8.392333984375e-05 37.2826042175293 8.392333984375e-05 37.28018569946289 9.1552734375e-05 37.27777862548828 C 9.918212890625e-05 37.27526473999023 9.918212890625e-05 37.27265930175781 0.0001068115234375 37.2701416015625 C 0.00011444091796875 37.26773834228516 0.00011444091796875 37.26561737060547 0.0001220703125 37.26321411132812 C 0.00012969970703125 37.26069641113281 0.0001373291015625 37.2577018737793 0.00014495849609375 37.25518417358398 C 0.000152587890625 37.25278091430664 0.00016021728515625 37.25098419189453 0.00016021728515625 37.24858093261719 C 0.0001678466796875 37.24606323242188 0.00018310546875 37.24301147460938 0.00019073486328125 37.24049758911133 C 0.00019073486328125 37.23869323730469 0.00020599365234375 37.23536682128906 0.00020599365234375 37.23356628417969 C 0.00022125244140625 37.23104858398438 0.0002288818359375 37.22826385498047 0.00023651123046875 37.22574615478516 C 0.000244140625 37.22334289550781 0.00025177001953125 37.22108840942383 0.0002593994140625 37.21868515014648 C 0.00026702880859375 37.21616744995117 0.00028228759765625 37.21366882324219 0.0002899169921875 37.21115112304688 C 0.00029754638671875 37.20874786376953 0.00031280517578125 37.20603179931641 0.0003204345703125 37.20362854003906 C 0.00032806396484375 37.20111083984375 0.000335693359375 37.19900894165039 0.0003509521484375 37.19649505615234 C 0.00035858154296875 37.194091796875 0.00037384033203125 37.19144058227539 0.0003814697265625 37.18903732299805 C 0.000396728515625 37.1865234375 0.00040435791015625 37.18407821655273 0.0004119873046875 37.18156051635742 C 0.00042724609375 37.17915725708008 0.00043487548828125 37.17669296264648 0.00045013427734375 37.17428970336914 C 0.00046539306640625 37.17177581787109 0.0004730224609375 37.16913223266602 0.00048828125 37.16661834716797 C 0.00049591064453125 37.16481781005859 0.00051116943359375 37.1614990234375 0.00052642822265625 37.15969467163086 C 0.0005340576171875 37.15718078613281 0.00054931640625 37.15431976318359 0.0005645751953125 37.15180206298828 C 0.000579833984375 37.14939880371094 0.00058746337890625 37.14720153808594 0.00060272216796875 37.14479827880859 C 0.00061798095703125 37.14228439331055 0.00063323974609375 37.13957977294922 0.00064849853515625 37.13706588745117 C 0.00066375732421875 37.13466262817383 0.00067138671875 37.1325569152832 0.0006866455078125 37.13015365600586 C 0.000701904296875 37.12763977050781 0.0007171630859375 37.12496566772461 0.000732421875 37.12245178222656 C 0.0007476806640625 37.12004852294922 0.00077056884765625 37.11745834350586 0.00078582763671875 37.11505508422852 C 0.00079345703125 37.11379623413086 0.00081634521484375 37.10944366455078 0.000823974609375 37.10818481445312 C 0.0008392333984375 37.10578155517578 0.00086212158203125 37.10282516479492 0.00087738037109375 37.10042572021484 C 0.00089263916015625 37.0979118347168 0.00091552734375 37.09529113769531 0.0009307861328125 37.09277725219727 C 0.000946044921875 37.09097671508789 0.00096893310546875 37.08759689331055 0.0009765625 37.08579635620117 C 0.001007080078125 37.08202362060547 0.00101470947265625 37.08088302612305 0.00104522705078125 37.07711029052734 C 0.00106048583984375 37.07471084594727 0.001068115234375 37.07353591918945 0.00109100341796875 37.07113647460938 C 0.0011138916015625 37.06736373901367 0.001129150390625 37.06595993041992 0.00115966796875 37.06218719482422 C 0.00116729736328125 37.06038665771484 0.001190185546875 37.05804061889648 0.0012054443359375 37.05624008178711 C 0.0012359619140625 37.05246734619141 0.00125885009765625 37.04905700683594 0.00128936767578125 37.04528427124023 C 0.00130462646484375 37.04408645629883 0.001312255859375 37.04277038574219 0.00131988525390625 37.04157257080078 C 0.00136566162109375 37.03654479980469 0.00140380859375 37.03193283081055 0.0014495849609375 37.02690505981445 C 0.00146484375 37.02510452270508 0.00147247314453125 37.02363586425781 0.001495361328125 37.02183532714844 C 0.00152587890625 37.01806640625 0.0015411376953125 37.0158576965332 0.00157928466796875 37.01208877563477 C 0.0016021728515625 37.00968551635742 0.001617431640625 37.00814437866211 0.00164031982421875 37.00574111938477 C 0.0016632080078125 37.00323104858398 0.0016937255859375 37.00003051757812 0.00171661376953125 36.99751663208008 C 0.001739501953125 36.9951171875 0.0017547607421875 36.99294662475586 0.00177764892578125 36.99054718017578 C 0.00180816650390625 36.98803329467773 0.0018310546875 36.98511505126953 0.001861572265625 36.98260116577148 C 0.0018768310546875 36.98080062866211 0.0019073486328125 36.97779846191406 0.001922607421875 36.97600173950195 C 0.00196075439453125 36.97223281860352 0.0019683837890625 36.97167205810547 0.00200653076171875 36.96790313720703 C 0.0020294189453125 36.96550369262695 0.00205230712890625 36.96353149414062 0.0020751953125 36.96113204956055 C 0.002105712890625 36.9586181640625 0.00213623046875 36.95562362670898 0.00215911865234375 36.95310974121094 C 0.00218963623046875 36.95071029663086 0.0022125244140625 36.94862365722656 0.00223541259765625 36.94622421264648 C 0.00225830078125 36.9437141418457 0.002288818359375 36.94095230102539 0.0023193359375 36.93843841552734 C 0.002349853515625 36.93603897094727 0.00237274169921875 36.93392944335938 0.0023956298828125 36.9315299987793 C 0.0024261474609375 36.92901992797852 0.0024566650390625 36.92599487304688 0.0024871826171875 36.92348480224609 C 0.00251007080078125 36.92168426513672 0.00254058837890625 36.91892242431641 0.0025634765625 36.9171257019043 C 0.00258636474609375 36.91461181640625 0.00263214111328125 36.91098785400391 0.00266265869140625 36.90847396850586 C 0.002685546875 36.90667724609375 0.00270843505859375 36.90438461303711 0.0027313232421875 36.90258407592773 C 0.0027618408203125 36.90007400512695 0.0028076171875 36.89621353149414 0.002838134765625 36.89370346069336 C 0.00286865234375 36.89130401611328 0.0028839111328125 36.88983154296875 0.0029144287109375 36.88743591308594 C 0.0029449462890625 36.88492202758789 0.00298309326171875 36.88192367553711 0.00301361083984375 36.87941360473633 C 0.00304412841796875 36.87701416015625 0.00307464599609375 36.8747444152832 0.00310516357421875 36.87234878540039 C 0.00313568115234375 36.86983489990234 0.003173828125 36.86706161499023 0.003204345703125 36.86454772949219 C 0.00323486328125 36.86215209960938 0.003265380859375 36.86018753051758 0.0032958984375 36.8577880859375 C 0.003326416015625 36.85527801513672 0.0033721923828125 36.85209655761719 0.0034027099609375 36.84958648681641 C 0.00342559814453125 36.84778594970703 0.0034637451171875 36.84499740600586 0.00348663330078125 36.84319686889648 C 0.0035247802734375 36.8406867980957 0.003570556640625 36.83706283569336 0.00360870361328125 36.83455276489258 C 0.003631591796875 36.83275604248047 0.00366973876953125 36.83023071289062 0.003692626953125 36.82843399047852 C 0.00372314453125 36.82592391967773 0.00377655029296875 36.82255554199219 0.00380706787109375 36.82004547119141 C 0.00384521484375 36.81764602661133 0.00386810302734375 36.81594085693359 0.00389862060546875 36.81354522705078 C 0.003936767578125 36.81103515625 0.00399017333984375 36.80751419067383 0.0040283203125 36.80500411987305 C 0.004058837890625 36.80260848999023 0.0040740966796875 36.80134201049805 0.00411224365234375 36.79894256591797 C 0.0041656494140625 36.7951774597168 0.0041961669921875 36.79343795776367 0.00424957275390625 36.7896728515625 C 0.00428009033203125 36.78787612915039 0.004302978515625 36.7861213684082 0.00433349609375 36.78432464599609 C 0.00438690185546875 36.78055953979492 0.00441741943359375 36.77835464477539 0.00447845458984375 36.77459335327148 C 0.00450897216796875 36.77279281616211 0.0045318603515625 36.7712516784668 0.00455474853515625 36.76945495605469 C 0.00461578369140625 36.76568984985352 0.00464630126953125 36.76395034790039 0.00469970703125 36.76018905639648 C 0.004730224609375 36.75839233398438 0.0047607421875 36.75638198852539 0.004791259765625 36.75458526611328 C 0.004852294921875 36.75082015991211 0.004913330078125 36.7470703125 0.004974365234375 36.74330520629883 C 0.0049896240234375 36.74210739135742 0.0050048828125 36.74126815795898 0.0050201416015625 36.74007034301758 C 0.0052642822265625 36.72501373291016 0.0055084228515625 36.71050262451172 0.00577545166015625 36.69545364379883 C 0.00579071044921875 36.69425582885742 0.00580596923828125 36.6935920715332 0.005828857421875 36.6923942565918 C 0.005889892578125 36.68863296508789 0.0059661865234375 36.68437576293945 0.00603485107421875 36.68061065673828 C 0.0060577392578125 36.67941284179688 0.00608062744140625 36.67814254760742 0.006103515625 36.67694854736328 C 0.00616455078125 36.67318344116211 0.00623321533203125 36.669677734375 0.0063018798828125 36.66591644287109 C 0.0063323974609375 36.66411972045898 0.00635528564453125 36.66268539428711 0.0063934326171875 36.660888671875 C 0.00646209716796875 36.65712738037109 0.006500244140625 36.65509796142578 0.00656890869140625 36.65133666992188 C 0.00659942626953125 36.64953994750977 0.00664520263671875 36.64712524414062 0.006683349609375 36.64532852172852 C 0.00675201416015625 36.64156723022461 0.00676727294921875 36.64052581787109 0.00684356689453125 36.63676452636719 C 0.00688934326171875 36.63436889648438 0.00691986083984375 36.63256454467773 0.00696563720703125 36.63016891479492 C 0.00701141357421875 36.62766265869141 0.007080078125 36.62444686889648 0.0071258544921875 36.62194061279297 C 0.007171630859375 36.61954498291016 0.0072021484375 36.61811447143555 0.0072479248046875 36.61571884155273 C 0.007293701171875 36.61321258544922 0.00736236572265625 36.60960388183594 0.007415771484375 36.60709762573242 C 0.00745391845703125 36.60530090332031 0.00749969482421875 36.60263061523438 0.007537841796875 36.60083770751953 C 0.00759124755859375 36.59833145141602 0.00765228271484375 36.59500503540039 0.0077056884765625 36.59249877929688 C 0.00774383544921875 36.59070205688477 0.00780487060546875 36.58769607543945 0.00783538818359375 36.58590316772461 C 0.0078887939453125 36.58339691162109 0.0079498291015625 36.5804557800293 0.00800323486328125 36.57794952392578 C 0.00804901123046875 36.57555389404297 0.00809478759765625 36.57334136962891 0.008148193359375 36.57094955444336 C 0.0081939697265625 36.56844329833984 0.0082550048828125 36.56557083129883 0.00830841064453125 36.56306457519531 C 0.00836181640625 36.5606689453125 0.008392333984375 36.55897903442383 0.00844573974609375 36.55658721923828 C 0.0084991455078125 36.55408096313477 0.00856781005859375 36.55069732666016 0.0086212158203125 36.54819107055664 C 0.00867462158203125 36.54579925537109 0.0087127685546875 36.54406356811523 0.00876617431640625 36.54167175292969 C 0.008819580078125 36.53916549682617 0.008880615234375 36.53613662719727 0.00893402099609375 36.53363037109375 C 0.00897216796875 36.53183364868164 0.00904083251953125 36.52869415283203 0.0090789794921875 36.52690124511719 C 0.0091400146484375 36.52439498901367 0.0092010498046875 36.52153015136719 0.00925445556640625 36.51902389526367 C 0.0092926025390625 36.51723098754883 0.009368896484375 36.51393508911133 0.00940704345703125 36.51214218139648 C 0.00946044921875 36.50963592529297 0.0095367431640625 36.50628662109375 0.0095977783203125 36.50378036499023 C 0.00965118408203125 36.50138854980469 0.009674072265625 36.50015258789062 0.00972747802734375 36.49776077270508 C 0.00978851318359375 36.49525451660156 0.0098724365234375 36.49142074584961 0.0099334716796875 36.48891448974609 C 0.00998687744140625 36.48652267456055 0.01001739501953125 36.48525619506836 0.01007080078125 36.48286437988281 C 0.01015472412109375 36.47910690307617 0.01019287109375 36.47766494750977 0.01027679443359375 36.47391128540039 C 0.01031494140625 36.47211456298828 0.01036834716796875 36.47011184692383 0.010406494140625 36.46831512451172 C 0.010498046875 36.46455764770508 0.0105438232421875 36.46254730224609 0.01062774658203125 36.45878982543945 C 0.01067352294921875 36.45699310302734 0.010711669921875 36.4553337097168 0.0107574462890625 36.45354080200195 C 0.01084136962890625 36.44978332519531 0.01091766357421875 36.44667434692383 0.01100921630859375 36.44291687011719 C 0.01103973388671875 36.44172286987305 0.011077880859375 36.44020080566406 0.01110076904296875 36.43900299072266 C 0.01119232177734375 36.43524932861328 0.01129150390625 36.43136215209961 0.011383056640625 36.42760848999023 C 0.01141357421875 36.42641067504883 0.01143646240234375 36.42531585693359 0.01146697998046875 36.42412185668945 C 0.01155853271484375 36.42036437988281 0.011688232421875 36.41526031494141 0.01177978515625 36.41150665283203 C 0.0117950439453125 36.41090774536133 0.01181793212890625 36.40995788574219 0.01183319091796875 36.40936279296875 C 0.01195526123046875 36.40435409545898 0.01207733154296875 36.39960861206055 0.01219940185546875 36.39459991455078 C 0.01222991943359375 36.39340591430664 0.01224517822265625 36.39289093017578 0.01227569580078125 36.39169311523438 C 0.0123748779296875 36.387939453125 0.01248931884765625 36.38347625732422 0.01258087158203125 36.37972259521484 C 0.01261138916015625 36.37852478027344 0.01264190673828125 36.37735748291016 0.01267242431640625 36.37616348266602 C 0.0127716064453125 36.37240600585938 0.0128631591796875 36.36881637573242 0.01296234130859375 36.36506271362305 C 0.01300811767578125 36.3632698059082 0.01303863525390625 36.3621940612793 0.01308441162109375 36.36040115356445 C 0.01318359375 36.35664749145508 0.01325225830078125 36.35390853881836 0.0133514404296875 36.35015487670898 C 0.01338958740234375 36.34896087646484 0.0134429931640625 36.34676742553711 0.0134735107421875 36.34557342529297 C 0.013580322265625 36.34181976318359 0.013641357421875 36.3393440246582 0.01374053955078125 36.33559036254883 C 0.0137939453125 36.33379745483398 0.0138397216796875 36.33206176757812 0.013885498046875 36.33027267456055 C 0.0139923095703125 36.32651901245117 0.01404571533203125 36.32443618774414 0.0141448974609375 36.32068252563477 C 0.01419830322265625 36.31889343261719 0.0142364501953125 36.31730651855469 0.01428985595703125 36.31551361083984 C 0.0143890380859375 36.31175994873047 0.01444244384765625 36.30987167358398 0.01454925537109375 36.30611801147461 C 0.01461029052734375 36.30372619628906 0.01464080810546875 36.3027458190918 0.01470947265625 36.30035781860352 C 0.01477813720703125 36.29785537719727 0.01488494873046875 36.2939567565918 0.01495361328125 36.29145431518555 C 0.01500701904296875 36.2896614074707 0.01508331298828125 36.28701019287109 0.01512908935546875 36.28521728515625 C 0.01520538330078125 36.28271865844727 0.015289306640625 36.27951049804688 0.0153656005859375 36.27701187133789 C 0.015411376953125 36.27521896362305 0.0155029296875 36.27220916748047 0.0155487060546875 36.27041625976562 C 0.015625 36.26791381835938 0.015716552734375 36.26457214355469 0.0157928466796875 36.26206970214844 C 0.01584625244140625 36.26027679443359 0.01592254638671875 36.25758361816406 0.0159759521484375 36.25579071044922 C 0.01604461669921875 36.25329208374023 0.016143798828125 36.24990844726562 0.0162200927734375 36.24740982055664 C 0.01628875732421875 36.24501800537109 0.016326904296875 36.24360656738281 0.01639556884765625 36.24121856689453 C 0.01647186279296875 36.23871994018555 0.0165863037109375 36.23479080200195 0.01666259765625 36.23229217529297 C 0.01671600341796875 36.23049926757812 0.01677703857421875 36.22850036621094 0.0168304443359375 36.22671127319336 C 0.01689910888671875 36.22420883178711 0.01702880859375 36.22003936767578 0.0171051025390625 36.2175407409668 C 0.01715850830078125 36.21574783325195 0.0172119140625 36.21378707885742 0.01726531982421875 36.21199417114258 C 0.01734161376953125 36.20949554443359 0.0174713134765625 36.20516586303711 0.017547607421875 36.20266342163086 C 0.017608642578125 36.20087432861328 0.01766204833984375 36.19898223876953 0.0177154541015625 36.19718933105469 C 0.017791748046875 36.1946907043457 0.017913818359375 36.19068908691406 0.0179901123046875 36.18819046020508 C 0.0180511474609375 36.18639755249023 0.01811981201171875 36.18411636352539 0.0181732177734375 36.18232727050781 C 0.01824951171875 36.17982482910156 0.01837158203125 36.17609024047852 0.0184478759765625 36.17359161376953 C 0.01851654052734375 36.17120361328125 0.01856231689453125 36.16990280151367 0.01863861083984375 36.16751480102539 C 0.0187530517578125 36.16376495361328 0.0187835693359375 36.16286849975586 0.01889801025390625 36.15912246704102 C 0.01897430419921875 36.15673446655273 0.0190277099609375 36.15514755249023 0.01910400390625 36.15275955200195 C 0.01921844482421875 36.14901351928711 0.019256591796875 36.14780807495117 0.019378662109375 36.14406204223633 C 0.01943206787109375 36.14226913452148 0.01950836181640625 36.13994598388672 0.01956939697265625 36.13815689086914 C 0.019683837890625 36.13440704345703 0.0197601318359375 36.13212203979492 0.0198822021484375 36.12837219238281 C 0.01992034912109375 36.12717819213867 0.01999664306640625 36.12485504150391 0.0200347900390625 36.12366104125977 C 0.0201568603515625 36.11991500854492 0.02030181884765625 36.11545944213867 0.02042388916015625 36.11171340942383 C 0.02044677734375 36.11111450195312 0.0204925537109375 36.10966110229492 0.0205078125 36.10906219482422 C 0.0206756591796875 36.10406494140625 0.02082061767578125 36.09957885742188 0.02098846435546875 36.09458160400391 C 0.0210113525390625 36.09398651123047 0.0209808349609375 36.09494400024414 0.02099609375 36.0943489074707 C 0.021331787109375 36.08435440063477 0.02166748046875 36.07442855834961 0.022003173828125 36.06443786621094 C 0.02202606201171875 36.0638427734375 0.02201080322265625 36.06424331665039 0.02203369140625 36.06364822387695 C 0.0222015380859375 36.05865097045898 0.02233123779296875 36.05476379394531 0.0225067138671875 36.04976654052734 C 0.02252960205078125 36.04917144775391 0.02260589599609375 36.0468864440918 0.0226287841796875 36.04629135131836 C 0.02275848388671875 36.04254531860352 0.02288055419921875 36.03897094726562 0.02301025390625 36.03522491455078 C 0.0230712890625 36.0334358215332 0.02313232421875 36.03176116943359 0.023193359375 36.02997207641602 C 0.02332305908203125 36.02622604370117 0.0233917236328125 36.02429962158203 0.02352142333984375 36.02055740356445 C 0.023590087890625 36.01876831054688 0.02365875244140625 36.0168342590332 0.02371978759765625 36.01504516601562 C 0.0238494873046875 36.01129913330078 0.0239105224609375 36.00958251953125 0.0240478515625 36.00583648681641 C 0.02410888671875 36.00404739379883 0.02417755126953125 36.00207138061523 0.0242462158203125 36.00028228759766 C 0.02437591552734375 35.99653625488281 0.02443695068359375 35.99480438232422 0.02457427978515625 35.99106216430664 C 0.02463531494140625 35.98927307128906 0.0247039794921875 35.98751831054688 0.0247650146484375 35.98573303222656 C 0.0248565673828125 35.98323440551758 0.02501678466796875 35.9788703918457 0.02510833740234375 35.97637557983398 C 0.02516937255859375 35.97458648681641 0.0252532958984375 35.97238159179688 0.0253143310546875 35.9705924987793 C 0.0254058837890625 35.96809768676758 0.02555084228515625 35.96427536010742 0.02564239501953125 35.9617805480957 C 0.02570343017578125 35.95999145507812 0.02579498291015625 35.9576416015625 0.02585601806640625 35.95585250854492 C 0.02594757080078125 35.9533576965332 0.02608489990234375 35.94963836669922 0.02617645263671875 35.9471435546875 C 0.0262451171875 35.94535446166992 0.02634429931640625 35.94268417358398 0.0264129638671875 35.94089508056641 C 0.0265045166015625 35.93840026855469 0.0266265869140625 35.93512725830078 0.0267181396484375 35.9326286315918 C 0.0268096923828125 35.93024444580078 0.02687835693359375 35.92850875854492 0.02696990966796875 35.92612457275391 C 0.02706146240234375 35.92362976074219 0.0271759033203125 35.9205436706543 0.02727508544921875 35.91804885864258 C 0.0273590087890625 35.91566467285156 0.027435302734375 35.9136848449707 0.02752685546875 35.91130065917969 C 0.02762603759765625 35.90880584716797 0.027740478515625 35.90574264526367 0.02783966064453125 35.90324783325195 C 0.027923583984375 35.90086364746094 0.02799224853515625 35.89923477172852 0.02808380126953125 35.8968505859375 C 0.02817535400390625 35.89435577392578 0.02831268310546875 35.890869140625 0.028411865234375 35.88837432861328 C 0.02848052978515625 35.8865852355957 0.0285797119140625 35.88403701782227 0.02864837646484375 35.88225173950195 C 0.02873992919921875 35.87975692749023 0.02889251708984375 35.87597274780273 0.02899169921875 35.87347793579102 C 0.02906036376953125 35.87168884277344 0.029144287109375 35.86944198608398 0.02921295166015625 35.86765670776367 C 0.0293121337890625 35.86516189575195 0.02945709228515625 35.86151504516602 0.0295562744140625 35.8590202331543 C 0.0296478271484375 35.85663986206055 0.0297088623046875 35.85508346557617 0.02980804443359375 35.85270309448242 C 0.0299072265625 35.8502082824707 0.030029296875 35.84711074829102 0.03012847900390625 35.8446159362793 C 0.03022003173828125 35.84223556518555 0.03029632568359375 35.84040832519531 0.03038787841796875 35.8380241394043 C 0.03054046630859375 35.83428192138672 0.0305633544921875 35.83366394042969 0.0307159423828125 35.82992172241211 C 0.03078460693359375 35.8281364440918 0.03090667724609375 35.82515716552734 0.03098297119140625 35.82337188720703 C 0.0311279296875 35.81962966918945 0.03118896484375 35.81813812255859 0.031341552734375 35.81439590454102 C 0.0314178466796875 35.8126106262207 0.031494140625 35.81076812744141 0.03156280517578125 35.80898284912109 C 0.03171539306640625 35.80524063110352 0.03180694580078125 35.80309677124023 0.03195953369140625 35.79935836791992 C 0.03203582763671875 35.79757308959961 0.03209686279296875 35.79593658447266 0.03217315673828125 35.79414749145508 C 0.032379150390625 35.78916168212891 0.0324859619140625 35.78654861450195 0.03269195556640625 35.78156280517578 C 0.03271484375 35.78096771240234 0.032745361328125 35.78037643432617 0.03276824951171875 35.77978134155273 C 0.03338623046875 35.76482391357422 0.03399658203125 35.75049209594727 0.03462982177734375 35.73553848266602 C 0.03470611572265625 35.7337532043457 0.03475189208984375 35.73273849487305 0.03482818603515625 35.73095321655273 C 0.0349884033203125 35.72721481323242 0.0351104736328125 35.72442245483398 0.03527069091796875 35.72068786621094 C 0.0353240966796875 35.71949768066406 0.03540802001953125 35.71747589111328 0.03546142578125 35.71628570556641 C 0.03562164306640625 35.71254730224609 0.035736083984375 35.70988845825195 0.0359039306640625 35.70615005493164 C 0.035980224609375 35.70436477661133 0.0360565185546875 35.70254898071289 0.0361328125 35.70076751708984 C 0.0363006591796875 35.69702911376953 0.036376953125 35.69525909423828 0.03653717041015625 35.69152069091797 C 0.03664398193359375 35.68914031982422 0.036712646484375 35.68763732910156 0.0368194580078125 35.68525695800781 C 0.03692626953125 35.68276596069336 0.03705596923828125 35.67972946166992 0.03717041015625 35.67723846435547 C 0.0372772216796875 35.67485809326172 0.0373687744140625 35.67270660400391 0.0374755859375 35.67032623291016 C 0.03759002685546875 35.6678352355957 0.0377197265625 35.664794921875 0.03783416748046875 35.66230392456055 C 0.03794097900390625 35.6599235534668 0.0380096435546875 35.65846633911133 0.038116455078125 35.65608596801758 C 0.0382232666015625 35.65359497070312 0.03838348388671875 35.65013885498047 0.03849029541015625 35.64764785766602 C 0.03857421875 35.6458625793457 0.03868865966796875 35.64333724975586 0.03876495361328125 35.64155197143555 C 0.03887939453125 35.63906097412109 0.03905487060546875 35.6352653503418 0.0391693115234375 35.63277435302734 C 0.03924560546875 35.6309928894043 0.0393524169921875 35.62863922119141 0.03943634033203125 35.62685775756836 C 0.03955078125 35.62436676025391 0.03971099853515625 35.6208610534668 0.039825439453125 35.61837005615234 C 0.0399322509765625 35.61598968505859 0.04000091552734375 35.6144905090332 0.04010772705078125 35.61211013793945 C 0.04022216796875 35.609619140625 0.04039764404296875 35.60595703125 0.0405120849609375 35.60346603393555 C 0.040618896484375 35.6010856628418 0.04067230224609375 35.59988784790039 0.0407867431640625 35.59750747680664 C 0.04090118408203125 35.59502029418945 0.04106903076171875 35.59137344360352 0.04119110107421875 35.58888626098633 C 0.04126739501953125 35.58710098266602 0.0413818359375 35.58476257324219 0.04146575927734375 35.58297729492188 C 0.0415802001953125 35.58049011230469 0.04177093505859375 35.57638168334961 0.04189300537109375 35.57389068603516 C 0.0419769287109375 35.57210922241211 0.0420684814453125 35.570068359375 0.04215240478515625 35.56828308105469 C 0.04227447509765625 35.5657958984375 0.042449951171875 35.56202697753906 0.04256439208984375 35.55953979492188 C 0.0426483154296875 35.55775451660156 0.0427703857421875 35.55531692504883 0.04285430908203125 35.55353546142578 C 0.04296875 35.55104446411133 0.0431671142578125 35.54686737060547 0.0432891845703125 35.54437637329102 C 0.04334259033203125 35.54319000244141 0.04347991943359375 35.54032897949219 0.04354095458984375 35.53913879394531 C 0.0437164306640625 35.53540420532227 0.0438385009765625 35.53291320800781 0.0440216064453125 35.52917861938477 C 0.04410552978515625 35.52739715576172 0.04415130615234375 35.52640533447266 0.0442352294921875 35.52462387084961 C 0.0444183349609375 35.52088928222656 0.0445709228515625 35.51780700683594 0.0447540283203125 35.51407623291016 C 0.04480743408203125 35.51288604736328 0.04489898681640625 35.51107788085938 0.044952392578125 35.5098876953125 C 0.045135498046875 35.50615692138672 0.0452728271484375 35.50333404541016 0.0454559326171875 35.49959945678711 C 0.0455169677734375 35.4984130859375 0.04561614990234375 35.49631118774414 0.04567718505859375 35.49512100219727 C 0.04586029052734375 35.49139022827148 0.0460052490234375 35.48838424682617 0.04619598388671875 35.48465347290039 C 0.0462493896484375 35.48346328735352 0.0463409423828125 35.48160171508789 0.0464019775390625 35.48041152954102 C 0.0465850830078125 35.47668075561523 0.0467529296875 35.47332763671875 0.04693603515625 35.4695930480957 C 0.047027587890625 35.46781158447266 0.0470428466796875 35.46751403808594 0.0471343994140625 35.46573257446289 C 0.0473785400390625 35.46075820922852 0.0475311279296875 35.45766830444336 0.04778289794921875 35.45269393920898 C 0.04781341552734375 35.45209884643555 0.0478363037109375 35.45167922973633 0.0478668212890625 35.45108795166016 C 0.04811859130859375 35.44610977172852 0.0483551025390625 35.4414176940918 0.04860687255859375 35.43644332885742 C 0.04866790771484375 35.43525314331055 0.04874420166015625 35.43366622924805 0.04880523681640625 35.43247985839844 C 0.0489959716796875 35.42874908447266 0.049163818359375 35.42545318603516 0.04935455322265625 35.42172241210938 C 0.04944610595703125 35.41994094848633 0.049468994140625 35.41946029663086 0.049560546875 35.41767883300781 C 0.04975128173828125 35.41394805908203 0.04991912841796875 35.41070938110352 0.05010986328125 35.406982421875 C 0.0501708984375 35.40579223632812 0.05028533935546875 35.40358352661133 0.05034637451171875 35.40239334106445 C 0.050537109375 35.39866256713867 0.05066680908203125 35.39616775512695 0.0508575439453125 35.39244079589844 C 0.05095672607421875 35.39065933227539 0.05104827880859375 35.38886260986328 0.05113983154296875 35.38708114624023 C 0.05133056640625 35.38335418701172 0.051422119140625 35.38161468505859 0.0516204833984375 35.37788391113281 C 0.0517120361328125 35.37610244750977 0.0518341064453125 35.3737907409668 0.0519256591796875 35.37200927734375 C 0.0521240234375 35.36827850341797 0.05219268798828125 35.36688613891602 0.05239105224609375 35.36315536499023 C 0.05248260498046875 35.36137390136719 0.052581787109375 35.35952758789062 0.05267333984375 35.35774612426758 C 0.0528717041015625 35.35401916503906 0.05297088623046875 35.35212326049805 0.05316925048828125 35.34839248657227 C 0.05323028564453125 35.34720611572266 0.0533905029296875 35.3442497253418 0.0534515380859375 35.34306335449219 C 0.0535888671875 35.34057998657227 0.0538177490234375 35.33623123168945 0.05394744873046875 35.33374404907227 C 0.054046630859375 35.33196258544922 0.05414581298828125 35.33005905151367 0.0542449951171875 35.32827758789062 C 0.05437469482421875 35.32579040527344 0.05458831787109375 35.32183837890625 0.05472564697265625 35.31935501098633 C 0.05481719970703125 35.31757354736328 0.05495452880859375 35.31500244140625 0.0550537109375 35.3132209777832 C 0.05518341064453125 35.31073760986328 0.055389404296875 35.30704879760742 0.05551910400390625 35.3045654296875 C 0.0556182861328125 35.30278396606445 0.05572509765625 35.30084228515625 0.055816650390625 35.2990608215332 C 0.0559539794921875 35.29657745361328 0.05619049072265625 35.29217147827148 0.05632781982421875 35.2896842956543 C 0.056427001953125 35.28790664672852 0.05652618408203125 35.28611373901367 0.0566253662109375 35.28433227539062 C 0.05675506591796875 35.2818489074707 0.05699920654296875 35.27746200561523 0.05713653564453125 35.27497482299805 C 0.0572357177734375 35.27319717407227 0.0573272705078125 35.27154922485352 0.0574188232421875 35.26976776123047 C 0.05755615234375 35.26728439331055 0.05779266357421875 35.26310348510742 0.05792999267578125 35.2606201171875 C 0.0580291748046875 35.25884246826172 0.0581512451171875 35.25656509399414 0.05825042724609375 35.25478363037109 C 0.05838775634765625 35.25230026245117 0.0586090087890625 35.24829864501953 0.05875396728515625 35.24581527709961 C 0.0588531494140625 35.24403381347656 0.05895233154296875 35.2421989440918 0.059051513671875 35.24042129516602 C 0.0591888427734375 35.23793792724609 0.05944061279296875 35.23344802856445 0.05957794189453125 35.23096466064453 C 0.05968475341796875 35.22918319702148 0.05977630615234375 35.22748184204102 0.05987548828125 35.22570037841797 C 0.060089111328125 35.22197723388672 0.0601959228515625 35.22001647949219 0.0604095458984375 35.21628952026367 C 0.06050872802734375 35.21451187133789 0.06060028076171875 35.2128791809082 0.060699462890625 35.21109771728516 C 0.0609130859375 35.20737457275391 0.0610198974609375 35.20553207397461 0.06122589111328125 35.20180511474609 C 0.06133270263671875 35.20002746582031 0.06143951416015625 35.19810485839844 0.0615386962890625 35.19632720947266 C 0.0617523193359375 35.19260025024414 0.061920166015625 35.18974685668945 0.0621337890625 35.18601989746094 C 0.06220245361328125 35.18483352661133 0.062286376953125 35.18326950073242 0.06235504150390625 35.18208312988281 C 0.06256866455078125 35.17835998535156 0.06281280517578125 35.17419815063477 0.06302642822265625 35.17047500610352 C 0.0630950927734375 35.16928863525391 0.06313323974609375 35.1685676574707 0.063201904296875 35.16738128662109 C 0.0634918212890625 35.16241836547852 0.063720703125 35.15842437744141 0.0640106201171875 35.15346145629883 C 0.0640106201171875 35.15346145629883 0.0640411376953125 35.15291595458984 0.0640411376953125 35.15291595458984 C 0.064910888671875 35.13802337646484 0.0657806396484375 35.12321853637695 0.0666656494140625 35.10832977294922 C 0.06670379638671875 35.10773468017578 0.06665802001953125 35.10850143432617 0.06668853759765625 35.10791015625 C 0.066986083984375 35.10294723510742 0.0672454833984375 35.09856796264648 0.06754302978515625 35.09360504150391 C 0.0675811767578125 35.09301376342773 0.06761932373046875 35.09237670898438 0.06764984130859375 35.09178161621094 C 0.0679473876953125 35.08681869506836 0.06810760498046875 35.08417510986328 0.0684051513671875 35.0792121887207 C 0.0684814453125 35.07802963256836 0.0685577392578125 35.07674789428711 0.06862640380859375 35.07556533813477 C 0.06885528564453125 35.07184219360352 0.069091796875 35.06792831420898 0.06931304931640625 35.064208984375 C 0.06938934326171875 35.06302261352539 0.06941986083984375 35.06247329711914 0.069488525390625 35.06128692626953 C 0.0697174072265625 35.05756378173828 0.0699615478515625 35.05359649658203 0.07018280029296875 35.04987335205078 C 0.0702972412109375 35.048095703125 0.070343017578125 35.04727172851562 0.0704498291015625 35.04549789428711 C 0.0706787109375 35.04177474975586 0.0708465576171875 35.03901672363281 0.071075439453125 35.03529739379883 C 0.0711517333984375 35.03411102294922 0.0713043212890625 35.03155136108398 0.071380615234375 35.03036499023438 C 0.071533203125 35.02788543701172 0.071807861328125 35.02339553833008 0.07196044921875 35.02091598510742 C 0.07207489013671875 35.01913833618164 0.07218170166015625 35.01734161376953 0.072296142578125 35.01556396484375 C 0.07244873046875 35.01308441162109 0.07273101806640625 35.00851058959961 0.07288360595703125 35.00603103637695 C 0.072998046875 35.00425338745117 0.073089599609375 35.00273513793945 0.0731964111328125 35.00095748901367 C 0.07335662841796875 34.99847793579102 0.0736236572265625 34.99417877197266 0.0737762451171875 34.99169921875 C 0.07389068603515625 34.98992538452148 0.0740203857421875 34.98786163330078 0.074127197265625 34.98608779907227 C 0.07428741455078125 34.98360824584961 0.07454681396484375 34.97939682006836 0.07470703125 34.9769172668457 C 0.0748138427734375 34.97514343261719 0.07492828369140625 34.97332763671875 0.075042724609375 34.97155380249023 C 0.0751953125 34.96907424926758 0.0754547119140625 34.9649772644043 0.07561492919921875 34.96249771118164 C 0.0757293701171875 34.96072387695312 0.07585906982421875 34.95861434936523 0.0759735107421875 34.95684051513672 C 0.07613372802734375 34.95436096191406 0.0764007568359375 34.95008850097656 0.07656097412109375 34.94760894775391 C 0.0766754150390625 34.94583511352539 0.07678985595703125 34.94403457641602 0.076904296875 34.9422607421875 C 0.077056884765625 34.93978118896484 0.0773162841796875 34.93573760986328 0.07747650146484375 34.93325805664062 C 0.0775909423828125 34.93148422241211 0.077728271484375 34.9293327331543 0.07784271240234375 34.92755889892578 C 0.0780029296875 34.92507934570312 0.078277587890625 34.9207878112793 0.07843780517578125 34.91831207275391 C 0.07855224609375 34.91653442382812 0.0786590576171875 34.91490173339844 0.07877349853515625 34.91312789916992 C 0.079010009765625 34.9094123840332 0.07915496826171875 34.90721130371094 0.07939910888671875 34.90349578857422 C 0.0795135498046875 34.9017219543457 0.07959747314453125 34.90034866333008 0.0797119140625 34.89857482910156 C 0.0799560546875 34.89485549926758 0.08013153076171875 34.89223480224609 0.0803680419921875 34.88851928710938 C 0.0804901123046875 34.88674545288086 0.0805511474609375 34.88573837280273 0.08066558837890625 34.88396453857422 C 0.08090972900390625 34.8802490234375 0.081085205078125 34.87758255004883 0.081329345703125 34.87386703491211 C 0.08144378662109375 34.87209320068359 0.081512451171875 34.87112045288086 0.08162689208984375 34.86934280395508 C 0.08187103271484375 34.86562728881836 0.082122802734375 34.86179351806641 0.082366943359375 34.85807800292969 C 0.08245086669921875 34.85689544677734 0.0825042724609375 34.85609817504883 0.08258056640625 34.85491561889648 C 0.08290863037109375 34.84996032714844 0.08312225341796875 34.8466911315918 0.0834503173828125 34.84173965454102 C 0.0834503173828125 34.84173965454102 0.0835418701171875 34.84038543701172 0.0835418701171875 34.84038543701172 C 0.08486175537109375 34.82057189941406 0.0861663818359375 34.80117797851562 0.08751678466796875 34.7813720703125 C 0.087554931640625 34.78078079223633 0.087646484375 34.77944946289062 0.0876922607421875 34.77885818481445 C 0.08794403076171875 34.775146484375 0.0882568359375 34.77055740356445 0.08850860595703125 34.76684188842773 C 0.088592529296875 34.76565933227539 0.08869171142578125 34.76425170898438 0.08876800537109375 34.76306915283203 C 0.08902740478515625 34.75935745239258 0.08925628662109375 34.75600814819336 0.089508056640625 34.75229263305664 C 0.08959197998046875 34.7511100769043 0.0897369384765625 34.74903869628906 0.089813232421875 34.74785614013672 C 0.0900726318359375 34.74414443969727 0.09026336669921875 34.74137115478516 0.09052276611328125 34.7376594543457 C 0.09064483642578125 34.73588562011719 0.0907135009765625 34.73492050170898 0.0908355712890625 34.73315048217773 C 0.091094970703125 34.72943496704102 0.09127044677734375 34.72692108154297 0.09152984619140625 34.72320938110352 C 0.09165191650390625 34.721435546875 0.091766357421875 34.71974182128906 0.091888427734375 34.71796798706055 C 0.0921478271484375 34.71425628662109 0.09229278564453125 34.71223068237305 0.09255218505859375 34.70851898193359 C 0.0926361083984375 34.70733642578125 0.09281158447265625 34.70482635498047 0.0928955078125 34.70364379882812 C 0.09307098388671875 34.70116806030273 0.09340667724609375 34.69641494750977 0.09357452392578125 34.69393920898438 C 0.0937042236328125 34.69216537475586 0.09381103515625 34.69060134887695 0.09394073486328125 34.68882751464844 C 0.0941162109375 34.68635559082031 0.09444427490234375 34.68169403076172 0.0946197509765625 34.67922210693359 C 0.0947418212890625 34.67744827270508 0.0948333740234375 34.67621612548828 0.0949554443359375 34.67444229125977 C 0.09513092041015625 34.67197036743164 0.0954742431640625 34.66716384887695 0.09564971923828125 34.66468811035156 C 0.0957794189453125 34.66291809082031 0.09588623046875 34.66134643554688 0.09601593017578125 34.65957641601562 C 0.09619140625 34.65710067749023 0.09651947021484375 34.6524772644043 0.09670257568359375 34.65000534057617 C 0.0967864990234375 34.64882278442383 0.09696197509765625 34.64632034301758 0.0970458984375 34.64513778686523 C 0.09722900390625 34.64266204833984 0.097564697265625 34.637939453125 0.097747802734375 34.63546752929688 C 0.097869873046875 34.63369750976562 0.09798431396484375 34.63215637207031 0.098114013671875 34.6303825378418 C 0.09828948974609375 34.62791061401367 0.0986480712890625 34.62300491333008 0.09882354736328125 34.62053298950195 C 0.0989532470703125 34.61875915527344 0.0990142822265625 34.61786270141602 0.09914398193359375 34.61609268188477 C 0.0994110107421875 34.61238098144531 0.099609375 34.60973739624023 0.09987640380859375 34.60602569580078 C 0.0999603271484375 34.6048469543457 0.1001434326171875 34.60239410400391 0.1002273559570312 34.60121536254883 C 0.100494384765625 34.59750366210938 0.1006927490234375 34.59482192993164 0.1009674072265625 34.59111404418945 C 0.1010513305664062 34.58993530273438 0.1011886596679688 34.58805084228516 0.1012802124023438 34.58686828613281 C 0.1015472412109375 34.58316040039062 0.1017608642578125 34.58026885986328 0.1020355224609375 34.57656097412109 C 0.1021652221679688 34.57479095458984 0.10223388671875 34.5738410949707 0.1023635864257812 34.57207107543945 C 0.1026382446289062 34.56836318969727 0.1028976440429688 34.56484603881836 0.1031723022460938 34.56113815307617 C 0.1032638549804688 34.55995941162109 0.10333251953125 34.5589599609375 0.103424072265625 34.55778121948242 C 0.10369873046875 34.55407333374023 0.1039505004882812 34.55066680908203 0.1042251586914062 34.54695892333984 C 0.1043167114257812 34.5457763671875 0.1044464111328125 34.54401779174805 0.1045303344726562 34.5428352355957 C 0.1049041748046875 34.53789520263672 0.1051177978515625 34.53501510620117 0.1054840087890625 34.53007507324219 C 0.10552978515625 34.52948379516602 0.1055450439453125 34.52923965454102 0.1055908203125 34.52865219116211 C 0.1059646606445312 34.52370834350586 0.106292724609375 34.51931381225586 0.1066665649414062 34.51437377929688 C 0.1067123413085938 34.5137825012207 0.1066513061523438 34.51451873779297 0.1066970825195312 34.5139274597168 C 0.1074447631835938 34.50404357910156 0.1081771850585938 34.4943733215332 0.1089248657226562 34.48449325561523 C 0.1090164184570312 34.48331069946289 0.1090164184570312 34.48325729370117 0.1091079711914062 34.48207855224609 C 0.1093902587890625 34.47837448120117 0.109771728515625 34.47341918945312 0.1100540161132812 34.46971130371094 C 0.1100997924804688 34.46912384033203 0.1101760864257812 34.4681282043457 0.1102218627929688 34.46753692626953 C 0.110504150390625 34.46383285522461 0.1108779907226562 34.45894241333008 0.1111602783203125 34.45523834228516 C 0.1112518310546875 34.45405960083008 0.1113433837890625 34.45289611816406 0.1114349365234375 34.45171737670898 C 0.1117172241210938 34.44801330566406 0.1120147705078125 34.44418716430664 0.1122970581054688 34.44048309326172 C 0.1123886108398438 34.43930435180664 0.11248779296875 34.43804168701172 0.112579345703125 34.43686294555664 C 0.1128692626953125 34.43315505981445 0.1131134033203125 34.43000030517578 0.1133956909179688 34.42629623413086 C 0.1135330200195312 34.42452621459961 0.1136550903320312 34.42303466796875 0.1137924194335938 34.4212646484375 C 0.11407470703125 34.41756057739258 0.1142654418945312 34.4151611328125 0.1145553588867188 34.41145706176758 C 0.1146926879882812 34.40969085693359 0.1147689819335938 34.40866851806641 0.1149139404296875 34.40690231323242 C 0.1151962280273438 34.4031982421875 0.115386962890625 34.40081405639648 0.1156768798828125 34.39710998535156 C 0.1157684326171875 34.39593124389648 0.115966796875 34.39336776733398 0.1160659790039062 34.39218902587891 C 0.1163558959960938 34.38848495483398 0.1165542602539062 34.38589096069336 0.116851806640625 34.38218688964844 C 0.1169891357421875 34.38041687011719 0.1170654296875 34.37942123413086 0.1172103881835938 34.37765502929688 C 0.117401123046875 34.37518692016602 0.117767333984375 34.37059020996094 0.1179580688476562 34.36812210083008 C 0.11810302734375 34.36635208129883 0.1182632446289062 34.36432266235352 0.1184005737304688 34.36255645751953 C 0.1185989379882812 34.36008834838867 0.1189422607421875 34.35580444335938 0.1191329956054688 34.35333633422852 C 0.1192779541015625 34.35156631469727 0.1194076538085938 34.34993743896484 0.1195449829101562 34.34816741943359 C 0.1197433471679688 34.34569931030273 0.120086669921875 34.34136962890625 0.1202850341796875 34.33890151977539 C 0.1204299926757812 34.33713150024414 0.1205673217773438 34.33538818359375 0.1207122802734375 34.33362197875977 C 0.12091064453125 34.33115386962891 0.1212844848632812 34.32647323608398 0.1214828491210938 34.32400512695312 C 0.1216201782226562 34.32223892211914 0.121734619140625 34.32082366943359 0.1218795776367188 34.31905746459961 C 0.1220779418945312 34.31658935546875 0.1224136352539062 34.31244659423828 0.1226119995117188 34.30997848510742 C 0.1227569580078125 34.30821228027344 0.1229324340820312 34.30599975585938 0.123077392578125 34.30423355102539 C 0.1232757568359375 34.30176544189453 0.1236038208007812 34.29769134521484 0.123809814453125 34.29522323608398 C 0.1239471435546875 34.29345703125 0.1240997314453125 34.29158401489258 0.1242446899414062 34.28981781005859 C 0.1244430541992188 34.287353515625 0.1248092651367188 34.28293609619141 0.1250076293945312 34.28047180175781 C 0.1251068115234375 34.27929306030273 0.1253280639648438 34.27656555175781 0.1254196166992188 34.27538681030273 C 0.1257247924804688 34.27168655395508 0.1259078979492188 34.2693977355957 0.1262130737304688 34.26570129394531 C 0.1263580322265625 34.26393127441406 0.1264724731445312 34.26253890991211 0.126617431640625 34.26077270507812 C 0.126922607421875 34.25707244873047 0.1270828247070312 34.25514984130859 0.1273880004882812 34.25144958496094 C 0.127532958984375 34.24968338012695 0.1276779174804688 34.24793243408203 0.1278228759765625 34.24616622924805 C 0.1281280517578125 34.24246597290039 0.1283416748046875 34.2398567199707 0.1286468505859375 34.23615646362305 C 0.1287460327148438 34.23497772216797 0.1289138793945312 34.23297119140625 0.1290054321289062 34.23179244995117 C 0.1293182373046875 34.22809600830078 0.129669189453125 34.22382354736328 0.129974365234375 34.22012329101562 C 0.1300277709960938 34.21953582763672 0.1301498413085938 34.21802139282227 0.1302032470703125 34.21743011474609 C 0.130615234375 34.21250152587891 0.1309356689453125 34.20862197875977 0.13134765625 34.20368957519531 C 0.13134765625 34.20368957519531 0.1314163208007812 34.20290374755859 0.1314163208007812 34.20290374755859 C 0.1330642700195312 34.18317794799805 0.13470458984375 34.1637077331543 0.1363906860351562 34.14399337768555 C 0.1364364624023438 34.14340591430664 0.1364517211914062 34.14326095581055 0.1364974975585938 34.14267349243164 C 0.1369171142578125 34.13774490356445 0.1371917724609375 34.13453674316406 0.1376190185546875 34.12960815429688 C 0.1377182006835938 34.12843322753906 0.137786865234375 34.12761306762695 0.1378860473632812 34.12643814086914 C 0.1382064819335938 34.12274169921875 0.1385498046875 34.11868286132812 0.1388702392578125 34.11498641967773 C 0.1389694213867188 34.11381149291992 0.1390457153320312 34.11296463012695 0.1391448974609375 34.11178970336914 C 0.13946533203125 34.10809326171875 0.139801025390625 34.10419845581055 0.1401214599609375 34.10050582885742 C 0.1402740478515625 34.09873962402344 0.1403121948242188 34.09830856323242 0.1404647827148438 34.09654235839844 C 0.1407852172851562 34.09284591674805 0.14105224609375 34.08971786499023 0.1413726806640625 34.08602523803711 C 0.1414794921875 34.08484649658203 0.1416397094726562 34.08295059204102 0.1417465209960938 34.0817756652832 C 0.1420669555664062 34.07807922363281 0.1422958374023438 34.07538986206055 0.1426239013671875 34.07169342041016 C 0.1427764892578125 34.06993103027344 0.1429061889648438 34.06841278076172 0.1430587768554688 34.066650390625 C 0.1432723999023438 34.06418609619141 0.1436843872070312 34.05952835083008 0.1438980102539062 34.05706787109375 C 0.1440505981445312 34.05530166625977 0.1441421508789062 34.05424880981445 0.1443023681640625 34.05248260498047 C 0.1445159912109375 34.05002212524414 0.1449737548828125 34.04482650756836 0.1451873779296875 34.04236602783203 C 0.1453399658203125 34.04059982299805 0.1454391479492188 34.03955841064453 0.1455917358398438 34.03779220581055 C 0.1458053588867188 34.03533172607422 0.1462478637695312 34.03033065795898 0.1464691162109375 34.02787017822266 C 0.1465682983398438 34.02669525146484 0.1467742919921875 34.02441787719727 0.1468734741210938 34.02324295043945 C 0.1470947265625 34.02078247070312 0.1474990844726562 34.01621246337891 0.1477203369140625 34.01375198364258 C 0.1478729248046875 34.01198577880859 0.1480636596679688 34.00985336303711 0.1482162475585938 34.00809097290039 C 0.1484375 34.00563049316406 0.1487808227539062 34.00176239013672 0.1490020751953125 33.99930191040039 C 0.1491622924804688 33.99753952026367 0.149322509765625 33.99566650390625 0.1494827270507812 33.99390029907227 C 0.1497039794921875 33.99143981933594 0.1501235961914062 33.98677444458008 0.1503372192382812 33.98431396484375 C 0.1504974365234375 33.98255157470703 0.1506195068359375 33.98123168945312 0.1507720947265625 33.97946929931641 C 0.1511077880859375 33.97577667236328 0.151336669921875 33.97320175170898 0.15167236328125 33.96950912475586 C 0.1517715454101562 33.96833419799805 0.1519622802734375 33.96627807617188 0.1520614624023438 33.96510314941406 C 0.1523971557617188 33.96141052246094 0.1526641845703125 33.95845413208008 0.1529998779296875 33.95476531982422 C 0.1531600952148438 33.95299911499023 0.1532211303710938 33.95232009887695 0.15338134765625 33.95055770874023 C 0.1537094116210938 33.94686508178711 0.1540985107421875 33.94260406494141 0.1544342041015625 33.93891525268555 C 0.1544876098632812 33.93832778930664 0.15460205078125 33.93704986572266 0.1546554565429688 33.93646240234375 C 0.1549911499023438 33.93276977539062 0.1554336547851562 33.9278678894043 0.1557693481445312 33.92417907714844 C 0.1558761596679688 33.92300415039062 0.1558914184570312 33.92287445068359 0.1559982299804688 33.92169952392578 C 0.1564483642578125 33.91677856445312 0.15679931640625 33.91290664672852 0.1572494506835938 33.90798568725586 C 0.1572494506835938 33.90798568725586 0.1573104858398438 33.90738296508789 0.1573104858398438 33.90738296508789 C 0.1577606201171875 33.90246200561523 0.1581192016601562 33.89855575561523 0.1585693359375 33.89363861083984 C 0.1585693359375 33.89363861083984 0.1586685180664062 33.892578125 0.1586685180664062 33.892578125 C 0.1604766845703125 33.87290191650391 0.1622772216796875 33.85348510742188 0.1641159057617188 33.83381652832031 C 0.1641159057617188 33.83381652832031 0.1642074584960938 33.8328971862793 0.1642074584960938 33.8328971862793 C 0.1646652221679688 33.82798004150391 0.1650390625 33.8239860534668 0.1655044555664062 33.81906890869141 C 0.165557861328125 33.81848526000977 0.16552734375 33.81882476806641 0.1655807495117188 33.8182373046875 C 0.1660385131835938 33.81332015991211 0.1663818359375 33.80968856811523 0.1668472290039062 33.80477142333984 C 0.166961669921875 33.8036003112793 0.1670074462890625 33.80310440063477 0.1671142578125 33.80193328857422 C 0.1674652099609375 33.79824447631836 0.1678543090820312 33.79410934448242 0.1682052612304688 33.79042053222656 C 0.1683731079101562 33.78866195678711 0.1684112548828125 33.78823089599609 0.1685791015625 33.78647232055664 C 0.1689300537109375 33.78278350830078 0.169219970703125 33.77975845336914 0.1695709228515625 33.77606964111328 C 0.169677734375 33.77489852905273 0.16986083984375 33.77299499511719 0.1699752807617188 33.77182006835938 C 0.1703262329101562 33.76813507080078 0.1706314086914062 33.76487350463867 0.170989990234375 33.76118850708008 C 0.1710968017578125 33.76001358032227 0.1712112426757812 33.75883483886719 0.17132568359375 33.75766372680664 C 0.1716766357421875 33.75397491455078 0.172027587890625 33.75028228759766 0.1723861694335938 33.74659729003906 C 0.1724929809570312 33.74542617797852 0.172607421875 33.74425506591797 0.1727218627929688 33.74308013916016 C 0.1730728149414062 33.73939514160156 0.1734237670898438 33.73573684692383 0.1737823486328125 33.73205184936523 C 0.1738967895507812 33.73087692260742 0.1740264892578125 33.72955322265625 0.17413330078125 33.7283821105957 C 0.1743698120117188 33.72592544555664 0.1749420166015625 33.72005462646484 0.1751785278320312 33.71759796142578 C 0.17529296875 33.71642684936523 0.1754226684570312 33.71503448486328 0.175537109375 33.71385955810547 C 0.1758956909179688 33.71017456054688 0.17626953125 33.70634460449219 0.1766281127929688 33.70265960693359 C 0.1767425537109375 33.70148468017578 0.17681884765625 33.70065307617188 0.1769332885742188 33.69948196411133 C 0.1772918701171875 33.69579696655273 0.17767333984375 33.69191741943359 0.1780319213867188 33.68823623657227 C 0.1781463623046875 33.68706130981445 0.178253173828125 33.68592834472656 0.1783676147460938 33.68475723266602 C 0.1787261962890625 33.68107223510742 0.1790924072265625 33.6773567199707 0.1794509887695312 33.67367172241211 C 0.1795654296875 33.67250061035156 0.1796798706054688 33.67132949829102 0.1797943115234375 33.67015838623047 C 0.1801605224609375 33.66647338867188 0.1804962158203125 33.66302871704102 0.1808547973632812 33.65934371948242 C 0.1809768676757812 33.65817260742188 0.181121826171875 33.65666580200195 0.1812362670898438 33.65549468994141 C 0.1816024780273438 33.65180969238281 0.181976318359375 33.64801025390625 0.1823348999023438 33.64432525634766 C 0.1824493408203125 33.64315414428711 0.1825332641601562 33.64230346679688 0.1826553344726562 33.64113235473633 C 0.183013916015625 33.63744735717773 0.183441162109375 33.6331787109375 0.183807373046875 33.62949752807617 C 0.1839218139648438 33.62832260131836 0.1839752197265625 33.6277961730957 0.1840896606445312 33.62662506103516 C 0.1844558715820312 33.62294387817383 0.1848907470703125 33.61853790283203 0.1852569580078125 33.6148567199707 C 0.1853713989257812 33.61368560791016 0.1854248046875 33.6131706237793 0.1855392456054688 33.61199569702148 C 0.1860275268554688 33.60708999633789 0.186309814453125 33.60430908203125 0.186798095703125 33.59940338134766 C 0.186859130859375 33.59881591796875 0.186920166015625 33.59820556640625 0.1869735717773438 33.59762191772461 C 0.187469482421875 33.59271240234375 0.1879043579101562 33.58831024169922 0.1884002685546875 33.58340454101562 C 0.1884002685546875 33.58340454101562 0.1884307861328125 33.5831298828125 0.1884307861328125 33.5831298828125 C 0.190399169921875 33.56349945068359 0.1923751831054688 33.54394149780273 0.1943740844726562 33.52431869506836 C 0.1943740844726562 33.52431869506836 0.1944046020507812 33.5240478515625 0.1944046020507812 33.5240478515625 C 0.1949081420898438 33.51914215087891 0.1953582763671875 33.51469039916992 0.19586181640625 33.50978851318359 C 0.1959228515625 33.50920104980469 0.1959381103515625 33.50902557373047 0.1959991455078125 33.50843811035156 C 0.196502685546875 33.50353622436523 0.1968460083007812 33.50016784667969 0.1973495483398438 33.49526214599609 C 0.1974105834960938 33.49467849731445 0.1974868774414062 33.4939079284668 0.1975479125976562 33.49332046508789 C 0.1980514526367188 33.48841857910156 0.198333740234375 33.48569488525391 0.1988372802734375 33.48078918457031 C 0.1988983154296875 33.48020553588867 0.1990509033203125 33.47873687744141 0.1991119384765625 33.47815322875977 C 0.199493408203125 33.4744758605957 0.1999588012695312 33.46994018554688 0.2003402709960938 33.46626281738281 C 0.2004013061523438 33.46567535400391 0.2005767822265625 33.46402359008789 0.2006378173828125 33.46343994140625 C 0.201019287109375 33.45976257324219 0.201446533203125 33.45559692382812 0.2018280029296875 33.45191955566406 C 0.2019500732421875 33.45074844360352 0.20208740234375 33.44944000244141 0.20220947265625 33.44826889038086 C 0.2025909423828125 33.4445915222168 0.20294189453125 33.44122314453125 0.2033233642578125 33.43754577636719 C 0.2034454345703125 33.43637466430664 0.2036209106445312 33.43472671508789 0.2037429809570312 33.43355560302734 C 0.2041244506835938 33.42987823486328 0.2044448852539062 33.42681884765625 0.204833984375 33.42314147949219 C 0.20501708984375 33.42138671875 0.2050933837890625 33.42063522338867 0.2052764892578125 33.41888046264648 C 0.205535888671875 33.41643142700195 0.20611572265625 33.41093063354492 0.2063674926757812 33.40847778320312 C 0.2064895629882812 33.40731048583984 0.2066650390625 33.40570449829102 0.206787109375 33.40453338623047 C 0.2070388793945312 33.40208435058594 0.2076416015625 33.39639663696289 0.2079010009765625 33.39394760131836 C 0.2080230712890625 33.39277648925781 0.20819091796875 33.39120864868164 0.20831298828125 33.39004135131836 C 0.2087020874023438 33.3863639831543 0.2090911865234375 33.38263320922852 0.2094802856445312 33.37895965576172 C 0.2095489501953125 33.37837600708008 0.209747314453125 33.37650680541992 0.209808349609375 33.37591934204102 C 0.2101974487304688 33.37224578857422 0.21063232421875 33.36810302734375 0.211029052734375 33.36442565917969 C 0.211151123046875 33.36325836181641 0.21124267578125 33.36237335205078 0.21136474609375 33.3612060546875 C 0.211761474609375 33.35752868652344 0.212188720703125 33.35348510742188 0.21258544921875 33.34981155395508 C 0.21270751953125 33.3486442565918 0.2127838134765625 33.34794616699219 0.2129058837890625 33.34677505493164 C 0.2134323120117188 33.34187698364258 0.213653564453125 33.33980941772461 0.21417236328125 33.33491134643555 C 0.2142333984375 33.33432769775391 0.214385986328125 33.33291625976562 0.214447021484375 33.33233261108398 C 0.2149734497070312 33.32743453979492 0.2152328491210938 33.32504653930664 0.21575927734375 33.32014846801758 C 0.2158203125 33.31956481933594 0.2159423828125 33.31840133666992 0.2160110473632812 33.31781768798828 C 0.216400146484375 33.31414413452148 0.2168960571289062 33.30956649780273 0.2172927856445312 33.30589294433594 C 0.2174224853515625 33.30472564697266 0.21746826171875 33.30428314208984 0.21759033203125 33.3031120300293 C 0.2181243896484375 33.2982177734375 0.21856689453125 33.29411697387695 0.2190933227539062 33.28921890258789 C 0.2190933227539062 33.28921890258789 0.2191162109375 33.28902053833008 0.2191162109375 33.28902053833008 C 0.2228317260742188 33.2547492980957 0.2265472412109375 33.22084808349609 0.2303543090820312 33.18660354614258 C 0.2304229736328125 33.18601989746094 0.2304840087890625 33.18547821044922 0.2305450439453125 33.18489456176758 C 0.2310867309570312 33.18000030517578 0.2314224243164062 33.17699432373047 0.2319717407226562 33.17210388183594 C 0.2321014404296875 33.17093658447266 0.2320785522460938 33.17111587524414 0.232208251953125 33.16994857788086 C 0.232757568359375 33.16505432128906 0.2330398559570312 33.16247940063477 0.2335891723632812 33.15758895874023 C 0.2336578369140625 33.15700531005859 0.2337799072265625 33.15590667724609 0.2338409423828125 33.15532302856445 C 0.2343902587890625 33.15043258666992 0.23468017578125 33.14786529541016 0.2352294921875 33.14297485351562 C 0.2352981567382812 33.14239120483398 0.2354278564453125 33.14119338989258 0.2354965209960938 33.14060974121094 C 0.2360458374023438 33.13571929931641 0.2362594604492188 33.13382339477539 0.2368087768554688 33.12893295288086 C 0.2369384765625 33.12776565551758 0.2370986938476562 33.12638473510742 0.2372283935546875 33.12521743774414 C 0.237640380859375 33.12155151367188 0.2380294799804688 33.11813354492188 0.2384414672851562 33.11446380615234 C 0.2386398315429688 33.11271286010742 0.2386703491210938 33.11246490478516 0.2388687133789062 33.11071395874023 C 0.2391433715820312 33.10826873779297 0.2397918701171875 33.1025505065918 0.2400665283203125 33.10010528564453 C 0.240203857421875 33.09893798828125 0.2403945922851562 33.09723281860352 0.2405242919921875 33.09606552124023 C 0.2408065795898438 33.09362030029297 0.2414474487304688 33.08798217773438 0.2417221069335938 33.08554077148438 C 0.2418594360351562 33.08437347412109 0.2420425415039062 33.082763671875 0.2421722412109375 33.08159637451172 C 0.2424545288085938 33.07915496826172 0.2430648803710938 33.07381057739258 0.2433395385742188 33.07136917114258 C 0.2435379028320312 33.06961822509766 0.24365234375 33.06862640380859 0.2438507080078125 33.06687927246094 C 0.2441329956054688 33.06443405151367 0.2447586059570312 33.05897521972656 0.2450408935546875 33.0565299987793 C 0.2452392578125 33.05477905273438 0.245269775390625 33.05450057983398 0.2454757690429688 33.05275344848633 C 0.2458953857421875 33.04908752441406 0.2463150024414062 33.04544067382812 0.246734619140625 33.04177474975586 C 0.2468719482421875 33.04060745239258 0.2469863891601562 33.03957366943359 0.2471237182617188 33.03841018676758 C 0.2475433349609375 33.03474426269531 0.248016357421875 33.0306396484375 0.248443603515625 33.02697372436523 C 0.2485733032226562 33.02581024169922 0.2486572265625 33.02509689331055 0.2487945556640625 33.02393341064453 C 0.2492141723632812 33.02026748657227 0.2496719360351562 33.01628875732422 0.2500991821289062 33.01262283325195 C 0.2501678466796875 33.01203918457031 0.2504043579101562 33.00999069213867 0.2504730224609375 33.00940704345703 C 0.25103759765625 33.00452041625977 0.2513275146484375 33.00204849243164 0.25189208984375 32.99716186523438 C 0.2520294189453125 32.99599838256836 0.2519912719726562 32.9963493347168 0.2521209716796875 32.99518203735352 C 0.2526931762695312 32.99029541015625 0.2530975341796875 32.98683166503906 0.2536697387695312 32.9819450378418 C 0.2537384033203125 32.98136138916016 0.2537384033203125 32.9813346862793 0.2538070678710938 32.98075103759766 C 0.2543792724609375 32.97586441040039 0.2548980712890625 32.97138977050781 0.2554702758789062 32.96650695800781 C 0.2554702758789062 32.96650695800781 0.2555007934570312 32.96628189086914 0.2555007934570312 32.96628189086914 C 0.2594985961914062 32.93209838867188 0.2635269165039062 32.89812469482422 0.2676239013671875 32.86396789550781 C 0.2676239013671875 32.86396789550781 0.2677154541015625 32.86320495605469 0.2677154541015625 32.86320495605469 C 0.2683029174804688 32.85832595825195 0.2687606811523438 32.85447311401367 0.26934814453125 32.84959411621094 C 0.2694168090820312 32.8490104675293 0.2694778442382812 32.84855651855469 0.2695465087890625 32.84797286987305 C 0.2701339721679688 32.84309387207031 0.2704849243164062 32.84017181396484 0.2710723876953125 32.83529281616211 C 0.2711410522460938 32.83470916748047 0.2712936401367188 32.83344650268555 0.2713699340820312 32.83286666870117 C 0.2719573974609375 32.82798767089844 0.272247314453125 32.82555770874023 0.2728424072265625 32.8206787109375 C 0.272979736328125 32.81951522827148 0.2729568481445312 32.81969833374023 0.273101806640625 32.81853485107422 C 0.2736892700195312 32.81365585327148 0.2739944458007812 32.81112670898438 0.2745895385742188 32.80625152587891 C 0.274658203125 32.80566787719727 0.2748260498046875 32.80429458618164 0.27490234375 32.80371475219727 C 0.2754898071289062 32.79883575439453 0.2757415771484375 32.79677200317383 0.276336669921875 32.79189300537109 C 0.2764053344726562 32.79131317138672 0.276611328125 32.78963088989258 0.2766876220703125 32.7890510559082 C 0.2772750854492188 32.78417205810547 0.2774810791015625 32.78248977661133 0.2780838012695312 32.77761459350586 C 0.2782211303710938 32.77645111083984 0.2783432006835938 32.77548217773438 0.2784805297851562 32.77431869506836 C 0.279083251953125 32.76944351196289 0.2792739868164062 32.76788330078125 0.2798690795898438 32.76300811767578 C 0.2800140380859375 32.76184463500977 0.2800979614257812 32.76117324829102 0.2802352905273438 32.760009765625 C 0.2808380126953125 32.75513458251953 0.2810592651367188 32.75329208374023 0.2816619873046875 32.74841690063477 C 0.2817306518554688 32.74783325195312 0.2819442749023438 32.74609756469727 0.2820205688476562 32.74551773071289 C 0.2826156616210938 32.74064254760742 0.282867431640625 32.73863220214844 0.2834701538085938 32.73375701904297 C 0.2836151123046875 32.73259353637695 0.2836456298828125 32.73233032226562 0.2837905883789062 32.73116302490234 C 0.28424072265625 32.72750854492188 0.2847976684570312 32.7230110168457 0.285247802734375 32.71935653686523 C 0.2853927612304688 32.71819305419922 0.2854537963867188 32.71773529052734 0.2855987548828125 32.71657180786133 C 0.2862014770507812 32.71169662475586 0.2865219116210938 32.70906829833984 0.2871322631835938 32.70419311523438 C 0.287200927734375 32.70361328125 0.2872848510742188 32.70296859741211 0.287353515625 32.70238494873047 C 0.2879638671875 32.69751358032227 0.2883987426757812 32.69402313232422 0.28900146484375 32.68915176391602 C 0.28900146484375 32.68915176391602 0.289154052734375 32.6879768371582 0.289154052734375 32.6879768371582 C 0.2903671264648438 32.67823028564453 0.291534423828125 32.66889953613281 0.292755126953125 32.65915679931641 C 0.292755126953125 32.65915679931641 0.2927780151367188 32.65900039672852 0.2927780151367188 32.65900039672852 C 0.29705810546875 32.62490081787109 0.301361083984375 32.59095764160156 0.3057327270507812 32.556884765625 C 0.3057327270507812 32.556884765625 0.3058090209960938 32.55632400512695 0.3058090209960938 32.55632400512695 C 0.3064346313476562 32.55145645141602 0.3069381713867188 32.54752731323242 0.3075637817382812 32.54265975952148 C 0.3076400756835938 32.54207992553711 0.3077239990234375 32.54143142700195 0.30780029296875 32.54084777832031 C 0.3084259033203125 32.53598403930664 0.3088302612304688 32.53282928466797 0.3094558715820312 32.52796173095703 C 0.3095321655273438 32.52738189697266 0.3095550537109375 32.52719116210938 0.30963134765625 32.52660751342773 C 0.3102645874023438 32.52174377441406 0.3106613159179688 32.51866149902344 0.3112869262695312 32.51379776000977 C 0.3114395141601562 32.51263427734375 0.3114395141601562 32.51264953613281 0.3115921020507812 32.5114860534668 C 0.3122177124023438 32.50662231445312 0.31256103515625 32.50398635864258 0.3131942749023438 32.49911880493164 C 0.3132705688476562 32.49853897094727 0.3133697509765625 32.49776458740234 0.313446044921875 32.49718475341797 C 0.3140792846679688 32.4923210144043 0.3144073486328125 32.48978042602539 0.3150405883789062 32.48491668701172 C 0.3151168823242188 32.48433685302734 0.3152999877929688 32.48294448852539 0.3153762817382812 32.48236465454102 C 0.316009521484375 32.47750091552734 0.3163299560546875 32.47505950927734 0.3169631958007812 32.47019577026367 C 0.3170394897460938 32.4696159362793 0.3171615600585938 32.46865844726562 0.3172378540039062 32.46807861328125 C 0.31787109375 32.46321487426758 0.3181991577148438 32.46072769165039 0.3188400268554688 32.45586395263672 C 0.3189926147460938 32.45470428466797 0.319000244140625 32.45462417602539 0.31915283203125 32.45346450805664 C 0.319793701171875 32.44860076904297 0.3201141357421875 32.44612121582031 0.3207550048828125 32.44126129150391 C 0.320831298828125 32.44068145751953 0.3209686279296875 32.43963623046875 0.321044921875 32.43905639648438 C 0.321685791015625 32.4341926574707 0.322021484375 32.43164825439453 0.322662353515625 32.42678833007812 C 0.3227386474609375 32.42620849609375 0.3228759765625 32.42517852783203 0.3229522705078125 32.42459869384766 C 0.3235931396484375 32.41973876953125 0.3240432739257812 32.41634368896484 0.3246841430664062 32.41147994995117 C 0.3247604370117188 32.4109001159668 0.324737548828125 32.41109466552734 0.3248138427734375 32.41051483154297 C 0.3254547119140625 32.4056510925293 0.326019287109375 32.40141296386719 0.32666015625 32.39654922485352 C 0.32666015625 32.39654922485352 0.32672119140625 32.3961296081543 0.32672119140625 32.3961296081543 C 0.327362060546875 32.39126968383789 0.327972412109375 32.38666915893555 0.3286209106445312 32.38180923461914 C 0.3286209106445312 32.38180923461914 0.328643798828125 32.38162231445312 0.328643798828125 32.38162231445312 C 0.335113525390625 32.3330192565918 0.341644287109375 32.28470993041992 0.348297119140625 32.23616409301758 C 0.348297119140625 32.23616409301758 0.348419189453125 32.23527908325195 0.348419189453125 32.23527908325195 C 0.349090576171875 32.23042297363281 0.3495864868164062 32.226806640625 0.350250244140625 32.22195434570312 C 0.3503341674804688 32.22137451171875 0.3504409790039062 32.22058868408203 0.3505172729492188 32.22000885009766 C 0.3511886596679688 32.21515655517578 0.3515853881835938 32.2122802734375 0.3522491455078125 32.20742797851562 C 0.3523330688476562 32.20684814453125 0.3524169921875 32.20626449584961 0.3524932861328125 32.20568466186523 C 0.3531646728515625 32.20083236694336 0.3535614013671875 32.19795227050781 0.3542327880859375 32.19309616088867 C 0.35430908203125 32.19252014160156 0.354461669921875 32.19146347045898 0.3545379638671875 32.19088363647461 C 0.3552093505859375 32.18603134155273 0.3555679321289062 32.18344497680664 0.3562393188476562 32.17859268188477 C 0.3563232421875 32.17801284790039 0.3564453125 32.17710494995117 0.3565292358398438 32.1765251159668 C 0.3572006225585938 32.17167663574219 0.3575363159179688 32.16924667358398 0.35821533203125 32.16439437866211 C 0.3583755493164062 32.16323852539062 0.358428955078125 32.16286849975586 0.3585891723632812 32.16170883178711 C 0.3592605590820312 32.1568603515625 0.3595504760742188 32.15480804443359 0.3602218627929688 32.14995574951172 C 0.3603897094726562 32.14879989624023 0.3604278564453125 32.14851379394531 0.3605880737304688 32.14735794067383 C 0.36126708984375 32.14250564575195 0.3615341186523438 32.14055633544922 0.362213134765625 32.13570404052734 C 0.3622970581054688 32.13512420654297 0.3625564575195312 32.13328170776367 0.3626327514648438 32.1327018737793 C 0.363311767578125 32.12785339355469 0.3635940551757812 32.1258544921875 0.3642730712890625 32.12100601196289 C 0.3643569946289062 32.12042617797852 0.3645401000976562 32.11911392211914 0.3646240234375 32.11853408813477 C 0.3653030395507812 32.11368179321289 0.3656082153320312 32.11148071289062 0.3662948608398438 32.10663223266602 C 0.366455078125 32.10547256469727 0.3664932250976562 32.10519409179688 0.3666610717773438 32.10403823852539 C 0.367340087890625 32.09918975830078 0.3677749633789062 32.09610366821289 0.3684616088867188 32.09125518798828 C 0.3685455322265625 32.09067535400391 0.3685455322265625 32.09064865112305 0.3686294555664062 32.09006881713867 C 0.3693161010742188 32.08522033691406 0.3698501586914062 32.0814094543457 0.3705368041992188 32.07656097412109 C 0.3705368041992188 32.07656097412109 0.3706741333007812 32.07560348510742 0.3706741333007812 32.07560348510742 C 0.37890625 32.01743316650391 0.3871917724609375 31.95987701416016 0.39569091796875 31.90179061889648 C 0.3957748413085938 31.90121078491211 0.395751953125 31.90139007568359 0.3958358764648438 31.90081405639648 C 0.39654541015625 31.89597320556641 0.3971176147460938 31.89206314086914 0.3978271484375 31.88722610473633 C 0.3978271484375 31.88722610473633 0.3979415893554688 31.88646697998047 0.3979415893554688 31.88646697998047 C 0.398651123046875 31.88162612915039 0.3992080688476562 31.8778076171875 0.3999252319335938 31.87297058105469 C 0.4000091552734375 31.87239074707031 0.4000244140625 31.87226867675781 0.4001083374023438 31.8716926574707 C 0.4008255004882812 31.86685180664062 0.4013442993164062 31.86331176757812 0.4020614624023438 31.85847091674805 C 0.4021453857421875 31.85789489746094 0.40216064453125 31.85779571533203 0.4022445678710938 31.85721969604492 C 0.4029617309570312 31.85237884521484 0.4034194946289062 31.84925842285156 0.4041366577148438 31.84441757202148 C 0.4043045043945312 31.84326553344727 0.404266357421875 31.84354019165039 0.4044342041015625 31.84238433837891 C 0.4051513671875 31.83754730224609 0.40557861328125 31.83465194702148 0.4063034057617188 31.82981491088867 C 0.4063873291015625 31.8292350769043 0.406463623046875 31.82869338989258 0.40655517578125 31.82811737060547 C 0.4072723388671875 31.82328033447266 0.4077529907226562 31.82002639770508 0.4084701538085938 31.81518936157227 C 0.4085617065429688 31.81461334228516 0.4085845947265625 31.81441879272461 0.4086761474609375 31.8138427734375 C 0.409393310546875 31.80900573730469 0.4099502563476562 31.80528259277344 0.4106674194335938 31.80044555664062 C 0.4106674194335938 31.80044555664062 0.4108047485351562 31.79950714111328 0.4108047485351562 31.79950714111328 C 0.411529541015625 31.79467391967773 0.412017822265625 31.79139709472656 0.4127426147460938 31.78656005859375 C 0.4128265380859375 31.78598403930664 0.4129257202148438 31.78535461425781 0.4130096435546875 31.7847785949707 C 0.4137344360351562 31.77994155883789 0.4143295288085938 31.77593612670898 0.4150543212890625 31.77109909057617 C 0.4150543212890625 31.77109909057617 0.4151077270507812 31.77075576782227 0.4151077270507812 31.77075576782227 C 0.4230880737304688 31.71756744384766 0.4311294555664062 31.66469955444336 0.4393310546875 31.6115837097168 C 0.4393310546875 31.6115837097168 0.4394454956054688 31.61087799072266 0.4394454956054688 31.61087799072266 C 0.440185546875 31.60604858398438 0.440826416015625 31.60190200805664 0.4415740966796875 31.59707641601562 C 0.4416656494140625 31.59650039672852 0.4415664672851562 31.59715270996094 0.441650390625 31.59657669067383 C 0.4423980712890625 31.59175109863281 0.4430694580078125 31.58745574951172 0.443817138671875 31.5826301574707 C 0.443817138671875 31.5826301574707 0.4439010620117188 31.58205795288086 0.4439010620117188 31.58205795288086 C 0.4446563720703125 31.57723236083984 0.4452896118164062 31.57315063476562 0.4460372924804688 31.56832504272461 C 0.4461288452148438 31.5677490234375 0.4460983276367188 31.56796264648438 0.4461822509765625 31.56738662719727 C 0.4469375610351562 31.56255722045898 0.4474716186523438 31.55910873413086 0.4482269287109375 31.55428314208984 C 0.4483184814453125 31.55370712280273 0.44842529296875 31.55301284790039 0.448516845703125 31.55243682861328 C 0.4492645263671875 31.54761123657227 0.4497604370117188 31.5444450378418 0.4505157470703125 31.53961944580078 C 0.4505157470703125 31.53961944580078 0.450714111328125 31.53836822509766 0.450714111328125 31.53836822509766 C 0.4514694213867188 31.53354263305664 0.4519805908203125 31.53024673461914 0.4527435302734375 31.52542114257812 C 0.4528274536132812 31.52484512329102 0.4529190063476562 31.52428436279297 0.4530105590820312 31.52370834350586 C 0.453765869140625 31.51888275146484 0.454315185546875 31.51536178588867 0.455078125 31.51054000854492 C 0.455169677734375 31.50996398925781 0.4551162719726562 31.51028442382812 0.4552078247070312 31.50970840454102 C 0.455963134765625 31.5048828125 0.4565811157226562 31.50095367431641 0.4573440551757812 31.49613189697266 C 0.4573440551757812 31.49613189697266 0.457489013671875 31.49523162841797 0.457489013671875 31.49523162841797 C 0.4590072631835938 31.4855842590332 0.460479736328125 31.47628021240234 0.462005615234375 31.46663665771484 C 0.462005615234375 31.46663665771484 0.462005615234375 31.46663284301758 0.462005615234375 31.46663284301758 C 0.4711761474609375 31.40876388549805 0.48046875 31.35098648071289 0.489898681640625 31.29320907592773 C 0.489898681640625 31.29320907592773 0.48992919921875 31.29305648803711 0.48992919921875 31.29305648803711 C 0.4915008544921875 31.28342819213867 0.493011474609375 31.27420043945312 0.4945907592773438 31.26457214355469 C 0.4945907592773438 31.26457214355469 0.4947128295898438 31.26383972167969 0.4947128295898438 31.26383972167969 C 0.4954986572265625 31.25902557373047 0.4961929321289062 31.25481796264648 0.496978759765625 31.25000762939453 C 0.4970779418945312 31.24943161010742 0.4969558715820312 31.25017547607422 0.4970474243164062 31.24959945678711 C 0.4978408813476562 31.24478530883789 0.4985122680664062 31.24071502685547 0.4993057250976562 31.23590469360352 C 0.4993057250976562 31.23590469360352 0.4994735717773438 31.23485565185547 0.4994735717773438 31.23485565185547 C 0.5002670288085938 31.23004531860352 0.500885009765625 31.22629547119141 0.5016860961914062 31.22148513793945 C 0.5017776489257812 31.22090911865234 0.5017623901367188 31.22102737426758 0.5018539428710938 31.22045135498047 C 0.5026473999023438 31.21564102172852 0.503204345703125 31.2122917175293 0.503997802734375 31.20748138427734 C 0.5040969848632812 31.20690536499023 0.504180908203125 31.20641326904297 0.5042724609375 31.20584106445312 C 0.5050735473632812 31.20102691650391 0.5057220458984375 31.19708251953125 0.5065231323242188 31.1922721862793 C 0.5065231323242188 31.1922721862793 0.5065689086914062 31.19197845458984 0.5065689086914062 31.19197845458984 C 0.5073699951171875 31.18716812133789 0.5081100463867188 31.18273162841797 0.5089111328125 31.17792129516602 C 0.5089111328125 31.17792129516602 0.50897216796875 31.17752838134766 0.50897216796875 31.17752838134766 C 0.52178955078125 31.10056686401367 0.5348052978515625 31.02390289306641 0.5480880737304688 30.94710159301758 C 0.5480880737304688 30.94710159301758 0.5481185913085938 30.9469108581543 0.5481185913085938 30.9469108581543 C 0.5663833618164062 30.84130859375 0.5850448608398438 30.73611068725586 0.6041946411132812 30.63081741333008 C 0.6041946411132812 30.63081741333008 0.6042556762695312 30.63051223754883 0.6042556762695312 30.63051223754883 C 1.878562927246094 23.62363433837891 5.107185363769531 17.29841613769531 9.705024719238281 12.23966598510742 C 9.705024719238281 12.23966598510742 9.705307006835938 12.23936080932617 9.705307006835938 12.23936080932617 C 9.708442687988281 12.23590469360352 9.71136474609375 12.23268890380859 9.714508056640625 12.2292366027832 C 9.714508056640625 12.2292366027832 9.714591979980469 12.22914505004883 9.714591979980469 12.22914505004883 C 9.717735290527344 12.22568893432617 9.720771789550781 12.22235107421875 9.723915100097656 12.21889877319336 C 9.724288940429688 12.21848678588867 9.723670959472656 12.21916580200195 9.724044799804688 12.21875381469727 C 9.790054321289062 12.146240234375 9.856216430664062 12.07411956787109 9.92279052734375 12.00212860107422 C 9.92279052734375 12.00212860107422 9.922904968261719 12.00200271606445 9.922904968261719 12.00200271606445 C 9.926071166992188 11.99857711791992 9.928878784179688 11.99553680419922 9.932052612304688 11.99211120605469 C 9.932052612304688 11.99211120605469 9.932647705078125 11.99146270751953 9.932647705078125 11.99146270751953 C 9.935821533203125 11.988037109375 9.938606262207031 11.98503494262695 9.9417724609375 11.98160934448242 C 9.9417724609375 11.98160934448242 9.941940307617188 11.98143005371094 9.941940307617188 11.98143005371094 C 9.945114135742188 11.97800445556641 9.948112487792969 11.97476959228516 9.951286315917969 11.97134399414062 C 9.95166015625 11.9709358215332 9.951072692871094 11.9715690612793 9.951454162597656 11.97116088867188 C 16.19093322753906 5.238456726074219 24.87953186035156 0.8090438842773438 34.6019172668457 0.1001739501953125 L 34.74740219116211 2.094879150390625 C 25.86308288574219 2.742881774902344 17.60994720458984 6.698814392089844 11.50831604003906 13.23393630981445 C 5.376785278320312 19.80108261108398 2.000007629394531 28.36874771118164 2.000007629394531 37.35871505737305 C 2.000007629394531 42.13299179077148 2.934600830078125 46.76339340209961 4.777847290039062 51.12130355834961 C 6.558639526367188 55.33155822753906 9.108406066894531 59.1131706237793 12.35632705688477 62.36110305786133 C 15.6042594909668 65.60902404785156 19.38587188720703 68.15879058837891 23.59612655639648 69.93958282470703 C 27.95403671264648 71.78282928466797 32.58443832397461 72.71742248535156 37.35871505737305 72.71742248535156 C 42.13299179077148 72.71742248535156 46.76339340209961 71.78282928466797 51.12130355834961 69.93958282470703 C 55.33155822753906 68.15879058837891 59.1131706237793 65.60902404785156 62.36110305786133 62.36110305786133 C 65.60902404785156 59.1131706237793 68.15879058837891 55.33155822753906 69.93958282470703 51.12130355834961 C 71.78282928466797 46.76339340209961 72.71742248535156 42.13299179077148 72.71742248535156 37.35871505737305 C 72.71742248535156 32.58443832397461 71.78282928466797 27.95403671264648 69.93958282470703 23.59612655639648 C 68.15879058837891 19.38587188720703 65.60902404785156 15.6042594909668 62.36110305786133 12.35632705688477 C 59.1131706237793 9.108406066894531 55.33155822753906 6.558639526367188 51.12130355834961 4.777847290039062 C 46.76339340209961 2.934600830078125 42.13299179077148 2.000007629394531 37.35871505737305 2.000007629394531 L 37.35871505737305 7.62939453125e-06 C 37.35871505737305 7.62939453125e-06 37.35871505737305 7.62939453125e-06 37.35871505737305 7.62939453125e-06 Z" stroke="none" fill="#4bb643"/>
        </g>
      </g>
    </g>
    <g id="Group_45206" data-name="Group 45206" transform="translate(859.257 3455.114)">
      <g id="Group_43296" data-name="Group 43296" clip-path="url(#clip-path-2)">
        <path id="Path_102989" data-name="Path 102989" d="M0,20.266V17.882c.023-.133.051-.266.069-.4.089-.651.141-1.309.268-1.953A18.669,18.669,0,0,1,7.567,3.91,18.6,18.6,0,0,1,22.3.276a18.382,18.382,0,0,1,9.393,4.479,18.782,18.782,0,0,1,6.231,11.031c.125.693.2,1.4.294,2.1v2.384c-.021.1-.048.19-.063.287-.154.978-.245,1.971-.468,2.933A19.155,19.155,0,0,1,22.4,37.858c-.695.117-1.4.194-2.1.29H17.915c-.244-.031-.487-.065-.732-.092a18.82,18.82,0,0,1-10.1-4.193A18.8,18.8,0,0,1,.294,22.36c-.125-.693-.2-1.4-.294-2.094M6.4,8.07a16.658,16.658,0,0,0,.793,22.9,16.742,16.742,0,0,0,22.968.762.46.46,0,0,0-.056-.089Q26.178,27.713,22.24,23.8a.486.486,0,0,0-.412-.066,7.091,7.091,0,0,1-7.07-1.276.436.436,0,0,0-.5-.069,5.408,5.408,0,0,1-2.677.28A5.554,5.554,0,0,1,9.837,12.207c.169-.086.339-.169.479-.239L6.4,8.07M24.148,22.356l7.712,7.7A16.811,16.811,0,0,0,8.1,6.387L11.729,10c.006-.007.039-.044.069-.083a6.473,6.473,0,0,1,9.294-1.194.424.424,0,0,0,.5.044,5.07,5.07,0,0,1,6.8,3.292,1.275,1.275,0,0,0,.618.837,5.048,5.048,0,0,1-3.878,9.2c-.471-.125-.778-.1-.986.26m-1.666-1.495c.281-.3.539-.547.767-.821A1.176,1.176,0,0,1,25,19.677a2.728,2.728,0,0,0,1.617.334,2.823,2.823,0,0,0,.64-5.492,1.239,1.239,0,0,1-.9-1.219,2.836,2.836,0,0,0-4.363-2.228c-.82.525-1.205.479-1.88-.228a4.269,4.269,0,0,0-6.591.508.394.394,0,0,0,.051.618q3.023,2.985,6.019,6c.948.947,1.9,1.9,2.9,2.9m-2.29.984.082-.129a2.389,2.389,0,0,1-.333-.236q-3.7-3.684-7.385-7.38a.725.725,0,0,0-.769-.236,3.38,3.38,0,0,0-2.746,3.114,3.173,3.173,0,0,0,1.589,3,3.2,3.2,0,0,0,3.4.057,1.212,1.212,0,0,1,1.722.266,6.893,6.893,0,0,0,1.316,1.022,4.566,4.566,0,0,0,3.124.519" transform="translate(0 0)" fill="#39ab39"/>
        <path id="Path_102990" data-name="Path 102990" d="M90.762,251.138a3.358,3.358,0,1,1,3.322,3.369,3.365,3.365,0,0,1-3.322-3.369m3.412-1.1a1.117,1.117,0,1,0,1.063,1.161,1.133,1.133,0,0,0-1.063-1.161" transform="translate(-81.729 -223.141)" fill="#39ab39"/>
      </g>
    </g>
  </g>
</svg>
