<svg xmlns="http://www.w3.org/2000/svg" width="17" height="17" viewBox="0 0 17 17">
  <g id="Group_45623" data-name="Group 45623" transform="translate(-15110 205)">
    <circle id="Ellipse_105" data-name="Ellipse 105" cx="8.5" cy="8.5" r="8.5" transform="translate(15110 -205)"/>
    <path id="Icon_awesome-instagram" data-name="Icon awesome-instagram" d="M4.48,4.422a2.3,2.3,0,1,0,2.3,2.3A2.3,2.3,0,0,0,4.48,4.422Zm0,3.794A1.495,1.495,0,1,1,5.974,6.722,1.5,1.5,0,0,1,4.48,8.216ZM7.408,4.328a.536.536,0,1,1-.536-.536A.535.535,0,0,1,7.408,4.328Zm1.522.544a2.654,2.654,0,0,0-.724-1.879,2.67,2.67,0,0,0-1.879-.724c-.74-.042-2.959-.042-3.7,0A2.667,2.667,0,0,0,.75,2.992,2.663,2.663,0,0,0,.026,4.871c-.042.74-.042,2.96,0,3.7A2.654,2.654,0,0,0,.75,10.449a2.674,2.674,0,0,0,1.879.724c.74.042,2.959.042,3.7,0a2.653,2.653,0,0,0,1.879-.724,2.672,2.672,0,0,0,.724-1.879c.042-.74.042-2.958,0-3.7ZM7.975,9.365a1.513,1.513,0,0,1-.852.852,9.879,9.879,0,0,1-2.643.18,9.956,9.956,0,0,1-2.643-.18,1.513,1.513,0,0,1-.852-.852A9.885,9.885,0,0,1,.8,6.722a9.962,9.962,0,0,1,.18-2.643,1.513,1.513,0,0,1,.852-.852,9.879,9.879,0,0,1,2.643-.18,9.956,9.956,0,0,1,2.643.18,1.513,1.513,0,0,1,.852.852,9.885,9.885,0,0,1,.18,2.643A9.879,9.879,0,0,1,7.975,9.365Z" transform="translate(15114.021 -203.222)" fill="#fff"/>
  </g>
</svg>
