<svg id="logo" xmlns="http://www.w3.org/2000/svg" width="40.325" height="45.673" viewBox="0 0 40.325 45.673">
  <path id="Path_7" data-name="Path 7" d="M39.865,5.6C38.709,2.754,29.7.394,21.722.035c-1.088-.049-2.165-.046-3.253.006C10.522.42,1.61,2.77.461,5.6c-1.437,4.655.754,14.665,2.911,20.68C6.33,34.532,15.859,44.343,19.544,45.56a1.725,1.725,0,0,0,1.1.042c3.579-1.01,13.313-10.965,16.309-19.321C39.111,20.266,41.3,10.257,39.865,5.6Z" transform="translate(0 0)" fill="#fff" fill-rule="evenodd"/>
  <path id="Path_8" data-name="Path 8" d="M21.722.035C29.7.394,38.709,2.754,39.865,5.6c1.436,4.655-.754,14.664-2.911,20.68-3,8.356-12.731,18.312-16.309,19.321a1.725,1.725,0,0,1-1.1-.042C15.859,44.343,6.33,34.532,3.371,26.281,1.214,20.266-.976,10.257.461,5.6,1.61,2.77,10.522.42,18.469.041,19.557-.011,20.634-.014,21.722.035Zm17.54,5.783c-.575-1.345-3.511-2.473-4.769-2.9a37.38,37.38,0,0,0-4.456-1.193c-1.67-.348-3.363-.61-5.059-.795Q23.341.749,21.694.673,20.1.6,18.5.679q-1.58.075-3.153.248c-1.7.184-3.389.447-5.059.795A37.378,37.378,0,0,0,5.831,2.915c-1.257.43-4.194,1.558-4.769,2.9a15.716,15.716,0,0,0-.374,5.174,46.857,46.857,0,0,0,.959,6.722,63.235,63.235,0,0,0,2.325,8.352,33.827,33.827,0,0,0,4.552,8.163,51.287,51.287,0,0,0,6.256,7.135,28.711,28.711,0,0,0,2.852,2.392,8.689,8.689,0,0,0,2.11,1.2,1.1,1.1,0,0,0,.727.034,7.8,7.8,0,0,0,2.076-1.129,27.6,27.6,0,0,0,2.881-2.387A51.127,51.127,0,0,0,31.8,34.229a33.829,33.829,0,0,0,4.552-8.163,63.243,63.243,0,0,0,2.325-8.351,46.866,46.866,0,0,0,.959-6.722A15.716,15.716,0,0,0,39.263,5.818Z" transform="translate(0 0)" fill="#fff" fill-rule="evenodd"/>
  <path id="Path_9" data-name="Path 9" d="M39.059,6.439c-.5-1.078-3.371-2.177-4.375-2.52a44.492,44.492,0,0,0-9.377-1.957q-1.618-.176-3.245-.251-1.567-.071-3.135.006t-3.115.245A44.494,44.494,0,0,0,6.435,3.919c-1,.343-3.875,1.442-4.375,2.52-.688,2.311-.359,5.937.12,8.9h36.76C39.418,12.376,39.747,8.75,39.059,6.439ZM2.282,15.955c.128.741.262,1.428.388,2.027a62.6,62.6,0,0,0,2.3,8.267,33.214,33.214,0,0,0,4.467,8A50.636,50.636,0,0,0,15.616,41.3c1.092,1.027,3.29,2.975,4.725,3.449a.5.5,0,0,0,.353.026c1.368-.386,3.665-2.407,4.695-3.367a50.482,50.482,0,0,0,6.291-7.152,33.214,33.214,0,0,0,4.467-8,62.6,62.6,0,0,0,2.3-8.266c.125-.6.259-1.287.388-2.027Z" transform="translate(-0.397 -0.399)" fill="#2b2a29" fill-rule="evenodd"/>
  <path id="Path_10" data-name="Path 10" d="M29.525,20.416h9.5c-.128.741-.262,1.428-.388,2.027a62.6,62.6,0,0,1-2.3,8.266,33.213,33.213,0,0,1-4.467,8c-.738,1.015-1.524,2.018-2.348,2.994Zm-17.546,0h-9.5c.128.741.262,1.428.388,2.027a62.6,62.6,0,0,0,2.3,8.267,33.214,33.214,0,0,0,4.467,8c.739,1.015,1.524,2.019,2.348,2.994Z" transform="translate(-0.589 -4.86)" fill="#393185" fill-rule="evenodd"/>
  <path id="Path_11" data-name="Path 11" d="M17.733,20.416h13.3V44.067q-.891.93-1.821,1.8c-1.03.961-3.327,2.981-4.695,3.367a.5.5,0,0,1-.353-.026c-1.435-.474-3.633-2.422-4.725-3.449q-.87-.817-1.707-1.692Z" transform="translate(-4.221 -4.86)" fill="#ffed00" fill-rule="evenodd"/>
  <path id="Path_12" data-name="Path 12" d="M28.308,9.566c1.979-.026,2.892,1.079,2.892,2.411s-1.026,2.4-2.892,2.412-2.892-1.08-2.892-2.412S26.328,9.591,28.308,9.566Zm3.269.106h2.849s1.506.016,1.583,1.153a1.216,1.216,0,0,1-.976,1.325,2.792,2.792,0,0,1,.759.758,4.57,4.57,0,0,0,.636.87,3.719,3.719,0,0,0,.613.47l-1.194,0a1.476,1.476,0,0,1-1.4-.757c-.2-.427-.256-.765-.377-.976a3.247,3.247,0,0,0-.377-.481,4.962,4.962,0,0,0,.546-.329,1.114,1.114,0,0,0,.319-.932.736.736,0,0,0-.476-.652,1.7,1.7,0,0,0-.673-.083V13.8a3.517,3.517,0,0,0,.281.262c.141.115.239.181.239.181l-2.411,0s.49-.179.537-.313a6.059,6.059,0,0,0,.014-.637c0-.323,0-.739,0-1.161,0-1.032,0-2.124,0-2.124a3.434,3.434,0,0,0-.285-.192A1.223,1.223,0,0,1,31.577,9.672Zm-12.052.009h2.368a1.93,1.93,0,0,0-.324.2c-.114.1-.185.174-.185.174v1.726h1.9V10.067a1.362,1.362,0,0,0-.226-.225,1.818,1.818,0,0,0-.252-.16h2.348s-.2.1-.288.166a.553.553,0,0,0-.185.212c0,.035,0,3.814,0,3.814a2.641,2.641,0,0,0,.258.208c.1.067.215.153.215.153H22.718s.316-.2.393-.258a1.728,1.728,0,0,0,.174-.16V12.143H21.38V13.82a2.473,2.473,0,0,0,.317.286,1.784,1.784,0,0,0,.253.133H19.542s.194-.112.337-.2a.316.316,0,0,0,.152-.219V10.06C20.031,10,19.737,9.826,19.525,9.681Zm-4.945,0h4.685v1.173a2.108,2.108,0,0,0-.395-.569.75.75,0,0,0-.449-.221H17.6v3.823s.086.08.235.193a1.755,1.755,0,0,0,.272.174H15.735s.217-.125.3-.182a1.344,1.344,0,0,0,.184-.172V10.074l-.834.01a.844.844,0,0,0-.478.289,3.134,3.134,0,0,0-.322.519Zm-3.68,0h2.355s-.482.264-.488.272,0,3.911,0,3.911a3.635,3.635,0,0,0,.864.029,2.039,2.039,0,0,0,1.013-.5,4.017,4.017,0,0,0,.4-.537l-.181,1.4H10.866l.49-.3V9.994A2.121,2.121,0,0,0,10.9,9.687ZM6.327,9.679h3.764v.864a2.7,2.7,0,0,0-.386-.316,1.157,1.157,0,0,0-.791-.24,4.474,4.474,0,0,0-.7.092v1.757h.971c.235,0,.6-.686.6-.686v1.72a3.59,3.59,0,0,0-.3-.412.971.971,0,0,0-.3-.248H8.212V13.87a3.8,3.8,0,0,0,.74.043,1.688,1.688,0,0,0,.8-.179,4.456,4.456,0,0,0,.748-.864l-.191,1.383H6.245a3.373,3.373,0,0,0,.335-.193,1.146,1.146,0,0,0,.263-.23V10.078ZM28.308,9.9c.919-.022,1.342.93,1.342,2.076s-.476,2.071-1.342,2.076-1.342-.929-1.342-2.076S27.389,9.924,28.308,9.9Z" transform="translate(-1.487 -2.277)" fill="#fefefe" fill-rule="evenodd"/>
</svg>
