<svg xmlns="http://www.w3.org/2000/svg" width="17" height="17" viewBox="0 0 17 17">
  <g id="Group_45622" data-name="Group 45622" transform="translate(-15131 205)">
    <circle id="Ellipse_106" data-name="Ellipse 106" cx="8.5" cy="8.5" r="8.5" transform="translate(15131 -205)"/>
    <path id="Icon_awesome-twitter" data-name="Icon awesome-twitter" d="M8.046,5.616c.006.1.006.2.006.294,0,2.992-1.849,6.439-5.229,6.439A4.516,4.516,0,0,1,0,11.333a3.1,3.1,0,0,0,.444.028,3.271,3.271,0,0,0,2.282-.967A1.935,1.935,0,0,1,1.007,8.824a1.894,1.894,0,0,0,.347.035,1.6,1.6,0,0,0,.484-.077A2.2,2.2,0,0,1,.364,6.561V6.533a1.6,1.6,0,0,0,.831.287A2.435,2.435,0,0,1,.376,4.936a2.654,2.654,0,0,1,.25-1.142,4.983,4.983,0,0,0,3.79,2.368,3.124,3.124,0,0,1-.046-.518A2.083,2.083,0,0,1,6.208,3.381,1.7,1.7,0,0,1,7.551,4.1a3.239,3.239,0,0,0,1.166-.546A2.234,2.234,0,0,1,7.909,4.8a3.157,3.157,0,0,0,1.058-.35,4.567,4.567,0,0,1-.922,1.17Z" transform="translate(15135.016 -204.365)" fill="#fff"/>
  </g>
</svg>
